<?xml version="1.0" encoding="utf-8"?>
<!-- Generator: Adobe Illustrator 16.0.0, SVG Export Plug-In . SVG Version: 6.00 Build 0)  -->
<!DOCTYPE svg PUBLIC "-//W3C//DTD SVG 1.1//EN" "http://www.w3.org/Graphics/SVG/1.1/DTD/svg11.dtd">
<svg version="1.1"
	 id="svg2" xmlns:dc="http://purl.org/dc/elements/1.1/" xmlns:cc="http://web.resource.org/cc/" xmlns:rdf="http://www.w3.org/1999/02/22-rdf-syntax-ns#" xmlns:svg="http://www.w3.org/2000/svg" xmlns:sodipodi="http://sodipodi.sourceforge.net/DTD/sodipodi-0.dtd" xmlns:inkscape="http://www.inkscape.org/namespaces/inkscape" sodipodi:docbase="C:\Documents and Settings\Flanker\Desktop" inkscape:output_extension="org.inkscape.output.svg.inkscape" sodipodi:docname="Card_back_01.svg" inkscape:version="0.45.1" sodipodi:version="0.32"
	 xmlns="http://www.w3.org/2000/svg" xmlns:xlink="http://www.w3.org/1999/xlink" x="0px" y="0px" width="208px" height="303px"
	 viewBox="0 0 208 303" enable-background="new 0 0 208 303" xml:space="preserve">
<sodipodi:namedview  width="208px" height="303px" inkscape:cy="151.66565" inkscape:cx="104.42474" inkscape:zoom="1.2428655" pagecolor="#ffffff" bordercolor="#666666" borderopacity="1.0" gridtolerance="10.0" guidetolerance="10.0" objecttolerance="10.0" id="base" inkscape:current-layer="svg2" inkscape:window-y="-4" inkscape:window-x="-4" inkscape:pageopacity="0.0" inkscape:pageshadow="2" inkscape:window-width="1280" inkscape:window-height="1003">
	</sodipodi:namedview>
<g id="Layer_x0020_1" transform="matrix(1,0,0,1.0029936,0,-0.363221)">
	<path id="path7" fill="#4000FF" stroke="#4000FF" stroke-width="0.0268" stroke-miterlimit="10" d="M34.403,40.96
		c42.927,0,85.855,0,128.781,0c1.012,0,10.742-0.463,10.742,0.366c0,4.653,0,9.305,0,13.957c0,23.095,0,46.19,0,69.284
		c0,44.816,0,89.633,0,134.45c0,0.319,0.216,1.773-0.178,1.773c-1.925,0-3.848,0-5.771,0c-9.99,0-19.979,0-29.967,0
		c-27.105,0-54.211,0-81.316,0c-7.148,0-14.297,0-21.445,0c-1.819,0-0.846-5.058-0.846-6.505c0-20.171,0-40.342,0-60.514
		c0-48.661,0-97.321,0-145.982C34.403,45.513,34.403,43.237,34.403,40.96"/>
	<path id="path9" fill="#FFFFFF" stroke="#FFFFFF" stroke-width="0.0268" stroke-miterlimit="10" d="M76.757,119.983
		c5.566,0,54.811-0.391,54.811,0.387c0,20.861,0,41.722,0,62.584c0,0.627-54.811,0.075-54.811,0.234c0-20.745,0-41.489,0-62.233
		C76.757,120.631,76.757,120.307,76.757,119.983"/>
	<path id="path11" fill="#FFFFFF" stroke="#FFFFFF" stroke-width="0.0268" stroke-miterlimit="10" d="M104.164,114.236
		c-5.398,6.226-10.796,12.452-16.195,18.679c-3.64,4.198-7.28,8.396-10.92,12.595c-0.845,0.974-5.275,4.729-5.275,6.083
		c0,1.244,4.075,4.7,4.851,5.595c3.781,4.362,7.563,8.722,11.344,13.084c5.399,6.225,10.797,12.451,16.195,18.678
		c5.397-6.227,10.795-12.453,16.195-18.678c3.639-4.199,7.279-8.397,10.919-12.595c0.845-0.976,5.275-4.729,5.275-6.083
		c0-1.245-4.075-4.7-4.851-5.595c-3.781-4.361-7.563-8.722-11.344-13.083C114.959,126.689,109.562,120.462,104.164,114.236"/>
	<path id="path13" fill="#4000FF" stroke="#4000FF" stroke-width="0.0268" stroke-miterlimit="10" d="M79.249,122.857
		c10.315,0,20.63,0,30.944,0c5.549,0,11.098,0,16.647,0c2.87,0,2.237,0.244,2.237,3.123c0,12.626,0,25.252,0,37.879
		c0,4.942,0,9.886,0,14.829c0,2.613-1.516,1.642-4.018,1.642c-10.879,0-21.757,0-32.635,0c-3.987,0-7.976,0-11.963,0
		c-1.963,0-1.213-1.271-1.213-3.123C79.249,159.089,79.249,140.973,79.249,122.857"/>
	<path id="path15" fill="#4000FF" stroke="#4000FF" stroke-width="0.0268" stroke-miterlimit="10" d="M104.164,117.11
		c-4.889,5.638-9.776,11.276-14.665,16.914c-3.485,4.019-6.97,8.038-10.455,12.058c-0.765,0.883-4.779,4.285-4.779,5.511
		c0,1.118,3.66,4.221,4.357,5.024c3.436,3.964,6.873,7.927,10.309,11.89c5.078,5.856,10.155,11.713,15.233,17.568
		c4.889-5.638,9.777-11.276,14.664-16.913c3.485-4.019,6.971-8.038,10.455-12.058c0.765-0.883,4.777-4.285,4.777-5.512
		c0-1.118-3.658-4.221-4.355-5.024c-3.437-3.963-6.873-7.927-10.309-11.89C114.318,128.823,109.24,122.967,104.164,117.11"/>
	<path id="path17" fill="#FFFFFF" stroke="#FFFFFF" stroke-width="0.0268" stroke-miterlimit="10" d="M84.232,128.605
		c10.82,0,21.64,0,32.459,0c1.352,0,7.403-0.913,7.403,0.737c0,4.875,0,9.75,0,14.624c0,2.144,0.026,30.617-0.024,30.617
		c-11.039,0-22.077,0-33.115,0c-1.318,0-6.723,0.9-6.723-0.738c0-4.874,0-9.749,0-14.624
		C84.232,149.016,84.232,138.81,84.232,128.605"/>
	<path id="path19" fill="#FFFFFF" stroke="#FFFFFF" stroke-width="0.0268" stroke-miterlimit="10" d="M104.164,122.857
		c-4.152,4.789-8.305,9.579-12.458,14.368c-2.783,3.21-5.567,6.42-8.35,9.63c-0.658,0.758-4.107,3.683-4.107,4.737
		c0,0.946,3.094,3.569,3.683,4.247c2.925,3.375,5.85,6.747,8.775,10.12c4.152,4.79,8.305,9.581,12.458,14.369
		c4.152-4.788,8.305-9.579,12.456-14.369c2.784-3.209,5.568-6.418,8.35-9.629c0.659-0.759,4.108-3.684,4.108-4.738
		c0-0.945-3.094-3.568-3.683-4.247c-2.925-3.374-5.851-6.747-8.775-10.121C112.469,132.436,108.316,127.647,104.164,122.857"/>
	<path id="path21" fill="#4000FF" stroke="#4000FF" stroke-width="0.0268" stroke-miterlimit="10" d="M86.724,131.478
		c10.628,0,21.258,0,31.886,0c3.838,0,2.994,0.34,2.994,4.184c0,6.455,0,12.91,0,19.364c0,5.283,0,10.565,0,15.846
		c0,1.858-6.522,0.836-8.045,0.836c-6.738,0-13.479,0-20.218,0c-2.352,0-6.617,1.373-6.617-1.457
		C86.724,157.328,86.724,144.403,86.724,131.478"/>
	<path id="path23" fill="#4000FF" stroke="#4000FF" stroke-width="0.0268" stroke-miterlimit="10" d="M104.164,125.73
		c-3.642,4.201-7.284,8.402-10.927,12.603c-2.628,3.031-5.257,6.063-7.886,9.095c-0.578,0.666-3.611,3.238-3.611,4.165
		c0,0.818,2.68,3.09,3.188,3.677c2.58,2.974,5.159,5.95,7.738,8.925c3.833,4.42,7.665,8.841,11.497,13.259
		c3.643-4.2,7.285-8.402,10.927-12.602c2.628-3.031,5.257-6.063,7.886-9.095c0.577-0.666,3.61-3.238,3.61-4.165
		c0-0.817-2.68-3.09-3.188-3.677c-2.58-2.975-5.159-5.95-7.739-8.925C111.828,134.571,107.996,130.151,104.164,125.73"/>
	<path id="path25" fill="#FFFFFF" stroke="#FFFFFF" stroke-width="0.0268" stroke-miterlimit="10" d="M104.164,128.605
		c-3.228,3.723-6.456,7.446-9.684,11.169c-2.27,2.619-4.541,5.237-6.811,7.855c-0.55,0.635-3.438,3.083-3.438,3.965
		c0,0.772,2.529,2.917,3.009,3.471c2.225,2.566,4.45,5.131,6.674,7.699c3.417,3.939,6.833,7.88,10.249,11.82
		c3.228-3.724,6.455-7.446,9.685-11.171c2.269-2.617,4.54-5.235,6.81-7.853c0.551-0.636,3.437-3.084,3.437-3.966
		c0-0.771-2.528-2.917-3.008-3.471c-2.225-2.566-4.45-5.132-6.676-7.699C110.996,136.484,107.58,132.544,104.164,128.605"/>
	<path id="path27" fill="#FFFFFF" stroke="#FFFFFF" stroke-width="0.0268" stroke-miterlimit="10" d="M89.214,134.351
		c9.923,0,19.846,0,29.77,0c0.26,0,0.128,28.207,0.128,30.896c0,0.545,0.39,3.161,0,3.587c-0.435,0.475-4.058,0-4.671,0
		c-6.631,0-13.262,0-19.892,0c-1.735,0-3.471,0-5.206,0c-0.291,0-0.129-2.733-0.129-3.051c0-6.432,0-12.862,0-19.293
		C89.214,142.444,89.214,138.397,89.214,134.351"/>
	<path id="path29" fill="#4000FF" d="M104.164,134.351c-2.492,2.874-4.983,5.747-7.475,8.621c-1.713,1.976-3.426,3.951-5.139,5.927
		c-0.372,0.428-2.336,2.097-2.336,2.694c0,0.598,1.965,2.267,2.336,2.694c1.713,1.976,3.426,3.951,5.139,5.927
		c2.492,2.874,4.983,5.746,7.475,8.621c2.492-2.874,4.982-5.746,7.475-8.621c1.713-1.976,3.426-3.951,5.137-5.927
		c0.373-0.427,2.337-2.096,2.337-2.694c0-0.597-1.964-2.265-2.337-2.694c-1.711-1.976-3.424-3.952-5.137-5.927
		C109.146,140.099,106.656,137.225,104.164,134.351"/>
	<path id="path31" fill="#FFFFFF" stroke="#FFFFFF" stroke-width="0.0268" stroke-miterlimit="10" d="M141.535,117.11
		c-1.66,0-3.32,0-4.981,0c1.661,1.915,3.321,3.831,4.981,5.747C141.535,120.942,141.535,119.025,141.535,117.11"/>
	<path id="path33" fill="#FFFFFF" stroke="#FFFFFF" stroke-width="0.0268" stroke-miterlimit="10" d="M141.535,125.73
		c-1.66-1.916-3.32-3.831-4.981-5.747c0,1.862,0,3.724,0,5.586C136.554,125.907,140.894,125.73,141.535,125.73"/>
	<path id="path35" fill="#FFFFFF" stroke="#FFFFFF" stroke-width="0.0268" stroke-miterlimit="10" d="M66.792,117.11
		c1.661,0,3.321,0,4.982,0c-1.661,1.915-3.321,3.831-4.982,5.747C66.792,120.942,66.792,119.025,66.792,117.11"/>
	<path id="path37" fill="#FFFFFF" stroke="#FFFFFF" stroke-width="0.0268" stroke-miterlimit="10" d="M66.792,125.73
		c1.661-1.916,3.321-3.831,4.982-5.747c0,1.862,0,3.724,0,5.586C71.774,125.907,67.435,125.73,66.792,125.73"/>
	<path id="path39" fill="#FFFFFF" stroke="#FFFFFF" stroke-width="0.0268" stroke-miterlimit="10" d="M71.774,177.455
		c-1.661,0-3.321,0-4.982,0c1.661,1.916,3.321,3.832,4.982,5.746C71.774,181.287,71.774,179.371,71.774,177.455"/>
	<path id="path41" fill="#FFFFFF" stroke="#FFFFFF" stroke-width="0.0268" stroke-miterlimit="10" d="M71.774,186.076
		c-1.661-1.916-3.321-3.832-4.982-5.746c0,1.862,0,3.723,0,5.587C66.792,186.253,71.132,186.076,71.774,186.076"/>
	<path id="path43" fill="#FFFFFF" stroke="#FFFFFF" stroke-width="0.0268" stroke-miterlimit="10" d="M136.554,177.455
		c1.661,0,3.321,0,4.981,0c-1.66,1.916-3.32,3.832-4.981,5.746C136.554,181.287,136.554,179.371,136.554,177.455"/>
	<path id="path45" fill="#FFFFFF" stroke="#FFFFFF" stroke-width="0.0268" stroke-miterlimit="10" d="M136.554,186.076
		c1.661-1.916,3.321-3.832,4.981-5.746c0,1.862,0,3.723,0,5.587C141.535,186.253,137.195,186.076,136.554,186.076"/>
	<path id="path47" fill="#FFFFFF" stroke="#FFFFFF" stroke-width="0.0268" stroke-miterlimit="10" d="M71.774,157.341
		c-1.661,0-3.321,0-4.982,0c1.661,1.916,3.321,3.83,4.982,5.746C71.774,161.172,71.774,159.257,71.774,157.341"/>
	<path id="path49" fill="#FFFFFF" stroke="#FFFFFF" stroke-width="0.0268" stroke-miterlimit="10" d="M71.774,165.96
		c-1.661-1.914-3.321-3.83-4.982-5.746c0,1.863,0,3.723,0,5.587C66.792,166.137,71.132,165.96,71.774,165.96"/>
	<path id="path51" fill="#FFFFFF" stroke="#FFFFFF" stroke-width="0.0268" stroke-miterlimit="10" d="M66.792,137.225
		c1.661,0,3.321,0,4.982,0c-1.661,1.915-3.321,3.831-4.982,5.747C66.792,141.057,66.792,139.14,66.792,137.225"/>
	<path id="path53" fill="#FFFFFF" stroke="#FFFFFF" stroke-width="0.0268" stroke-miterlimit="10" d="M66.792,145.846
		c1.661-1.916,3.321-3.831,4.982-5.747c0,1.862,0,3.725,0,5.586C71.774,146.022,67.435,145.846,66.792,145.846"/>
	<path id="path55" fill="#FFFFFF" stroke="#FFFFFF" stroke-width="0.0268" stroke-miterlimit="10" d="M141.535,137.225
		c-1.66,0-3.32,0-4.981,0c1.661,1.915,3.321,3.831,4.981,5.747C141.535,141.057,141.535,139.14,141.535,137.225"/>
	<path id="path57" fill="#FFFFFF" stroke="#FFFFFF" stroke-width="0.0268" stroke-miterlimit="10" d="M141.535,145.846
		c-1.66-1.916-3.32-3.831-4.981-5.747c0,1.862,0,3.725,0,5.586C136.554,146.022,140.894,145.846,141.535,145.846"/>
	<path id="path59" fill="#FFFFFF" stroke="#FFFFFF" stroke-width="0.0268" stroke-miterlimit="10" d="M136.554,157.341
		c1.661,0,3.321,0,4.981,0c-1.66,1.916-3.32,3.83-4.981,5.746C136.554,161.172,136.554,159.257,136.554,157.341"/>
	<path id="path61" fill="#FFFFFF" stroke="#FFFFFF" stroke-width="0.0268" stroke-miterlimit="10" d="M136.554,165.96
		c1.661-1.914,3.321-3.83,4.981-5.746c0,1.863,0,3.723,0,5.587C141.535,166.137,137.195,165.96,136.554,165.96"/>
	<path id="path63" fill="#4000FF" d="M86.786,31.262c-1.019-2.52-2.096-5.087-2.794-7.721c-0.63-2.373-1.131-8.166,2.026-9.306
		c3.029-1.092,4.13,4.145,4.09,6.203c-0.06,3.091-1.529,6.249-2.635,9.09C87.248,30.107,87.018,30.687,86.786,31.262"/>
	<path id="path65" fill="#4000FF" d="M86.77,31.319c-2.504-1.054-5.292-2.087-7.508-3.687c-1.967-1.422-5.1-5.634-3.272-8.209
		c1.845-2.601,5.694,0.38,6.938,2.137c1.784,2.518,2.623,5.963,3.559,8.869C86.583,30.724,86.676,31.024,86.77,31.319"/>
	<path id="path67" fill="#4000FF" d="M86.777,31.319c2.504-1.055,5.291-2.087,7.508-3.687c1.967-1.421,5.1-5.634,3.272-8.209
		c-1.845-2.601-5.695,0.38-6.939,2.137c-1.819,2.568-2.67,6.099-3.622,9.066C86.923,30.855,86.85,31.089,86.777,31.319"/>
	<path id="path69" fill="#4000FF" d="M80.362,31.664c-2.026-0.601-4.536-0.402-5.83,1.475c-0.69,1-0.847,4.878,1.349,4.124
		c0.383-0.131,0.696-1.831,1.163-2.222c0.89-0.746,2.557-0.723,3.637-0.81c1.454-0.115,2.964,0.04,4.393-0.158
		c0.002-0.008,0.004-0.016,0.009-0.024C83.729,32.999,82.003,32.172,80.362,31.664"/>
	<path id="path71" fill="#4000FF" d="M93.085,31.664c2.026-0.602,4.535-0.402,5.83,1.475c0.69,1,0.847,4.878-1.35,4.124
		c-0.383-0.131-0.695-1.83-1.162-2.222c-0.89-0.746-2.557-0.723-3.638-0.81c-1.455-0.115-2.964,0.04-4.394-0.158
		c-0.002-0.008-0.004-0.016-0.009-0.024C89.718,32.999,91.444,32.172,93.085,31.664"/>
	<path id="path73" fill="#4000FF" d="M85.062,37.248c0.296,2.532,4.687,1.301,2.587-2.183C86.174,32.616,85.33,34.907,85.062,37.248
		"/>
	<path id="path75" fill="#4000FF" d="M121.666,31.262c-1.02-2.52-2.096-5.088-2.794-7.721c-0.63-2.373-1.131-8.166,2.025-9.306
		c3.029-1.093,4.131,4.146,4.091,6.203c-0.06,3.092-1.528,6.249-2.635,9.09C122.127,30.107,121.898,30.686,121.666,31.262"/>
	<path id="path77" fill="#4000FF" d="M121.65,31.319c-2.504-1.054-5.293-2.087-7.508-3.687c-1.967-1.422-5.1-5.634-3.273-8.209
		c1.846-2.6,5.695,0.379,6.939,2.137c1.784,2.518,2.621,5.964,3.559,8.869C121.463,30.724,121.557,31.024,121.65,31.319"/>
	<path id="path79" fill="#4000FF" d="M121.658,31.319c2.504-1.055,5.291-2.087,7.508-3.687c1.968-1.422,5.1-5.634,3.271-8.209
		c-1.845-2.601-5.695,0.38-6.938,2.137c-1.82,2.568-2.669,6.099-3.62,9.066C121.805,30.855,121.731,31.089,121.658,31.319"/>
	<path id="path81" fill="#4000FF" d="M115.242,31.664c-2.025-0.602-4.535-0.402-5.828,1.475c-0.691,1.001-0.85,4.878,1.349,4.124
		c0.382-0.131,0.695-1.831,1.163-2.222c0.889-0.746,2.557-0.723,3.637-0.81c1.454-0.115,2.964,0.04,4.393-0.158
		c0.001-0.008,0.005-0.016,0.008-0.024C118.607,32.999,116.885,32.172,115.242,31.664"/>
	<path id="path83" fill="#4000FF" d="M127.965,31.664c2.026-0.602,4.537-0.402,5.832,1.475c0.688,1,0.846,4.878-1.35,4.124
		c-0.385-0.131-0.697-1.831-1.164-2.222c-0.889-0.746-2.557-0.723-3.637-0.81c-1.455-0.115-2.965,0.04-4.395-0.158
		c-0.001-0.008-0.004-0.016-0.008-0.024C124.6,33,126.324,32.172,127.965,31.664"/>
	<path id="path85" fill="#4000FF" d="M119.943,37.248c0.297,2.532,4.686,1.301,2.586-2.183
		C121.055,32.615,120.209,34.908,119.943,37.248"/>
	<path id="path87" fill="#4000FF" d="M156.547,31.262c-1.018-2.521-2.097-5.087-2.795-7.721c-0.629-2.373-1.131-8.166,2.027-9.306
		c3.028-1.092,4.129,4.146,4.09,6.203c-0.061,3.092-1.529,6.248-2.636,9.09C157.01,30.107,156.778,30.687,156.547,31.262"/>
	<path id="path89" fill="#4000FF" d="M156.53,31.319c-2.505-1.055-5.29-2.087-7.509-3.687c-1.967-1.422-5.098-5.634-3.271-8.209
		c1.845-2.601,5.695,0.38,6.939,2.137c1.818,2.568,2.669,6.098,3.619,9.066C156.385,30.855,156.457,31.089,156.53,31.319"/>
	<path id="path91" fill="#4000FF" d="M156.537,31.319c2.505-1.054,5.293-2.087,7.51-3.687c1.967-1.422,5.098-5.634,3.271-8.209
		c-1.845-2.601-5.695,0.38-6.939,2.137c-1.818,2.568-2.669,6.099-3.619,9.066C156.686,30.855,156.611,31.089,156.537,31.319"/>
	<path id="path93" fill="#4000FF" d="M150.123,31.664c-2.025-0.602-4.535-0.402-5.83,1.475c-0.69,1.001-0.848,4.878,1.35,4.124
		c0.383-0.131,0.695-1.831,1.162-2.222c0.89-0.746,2.558-0.723,3.637-0.81c1.456-0.115,2.965,0.04,4.395-0.158
		c0.002-0.008,0.005-0.016,0.008-0.024C153.488,32.999,151.765,32.172,150.123,31.664"/>
	<path id="path95" fill="#4000FF" d="M162.846,31.664c2.027-0.601,4.537-0.402,5.83,1.475c0.69,1,0.849,4.877-1.35,4.124
		c-0.382-0.131-0.695-1.83-1.162-2.222c-0.891-0.746-2.557-0.723-3.638-0.81c-1.454-0.115-2.964,0.04-4.394-0.158
		c-0.002-0.008-0.005-0.016-0.008-0.024C159.48,32.999,161.205,32.172,162.846,31.664"/>
	<path id="path97" fill="#4000FF" d="M154.824,37.248c0.296,2.533,4.686,1.3,2.586-2.183
		C155.935,32.615,155.092,34.908,154.824,37.248"/>
	<path id="path99" fill="#4000FF" d="M51.905,31.262c-1.019-2.52-2.096-5.088-2.794-7.721c-0.63-2.373-1.13-8.166,2.026-9.306
		c3.029-1.093,4.129,4.146,4.09,6.203c-0.06,3.092-1.529,6.248-2.635,9.09C52.367,30.107,52.138,30.686,51.905,31.262"/>
	<path id="path101" fill="#4000FF" d="M51.889,31.319c-2.504-1.055-5.291-2.087-7.507-3.687c-1.967-1.422-5.1-5.634-3.272-8.209
		c1.845-2.601,5.695,0.38,6.939,2.137c1.783,2.518,2.622,5.964,3.559,8.869C51.702,30.724,51.795,31.024,51.889,31.319"/>
	<path id="path103" fill="#4000FF" d="M51.897,31.319c2.503-1.054,5.292-2.087,7.508-3.687c1.967-1.422,5.1-5.634,3.272-8.209
		c-1.846-2.601-5.694,0.38-6.939,2.137c-1.783,2.518-2.622,5.964-3.558,8.869C52.084,30.724,51.99,31.023,51.897,31.319"/>
	<path id="path105" fill="#4000FF" d="M45.481,31.664c-2.026-0.602-4.535-0.402-5.83,1.475c-0.69,1-0.847,4.878,1.35,4.124
		c0.382-0.131,0.695-1.831,1.162-2.222c0.889-0.746,2.557-0.723,3.638-0.81c1.455-0.115,2.964,0.04,4.394-0.158
		c0.001-0.008,0.004-0.016,0.008-0.024C48.848,33,47.123,32.171,45.481,31.664"/>
	<path id="path107" fill="#4000FF" d="M58.204,31.664c2.026-0.601,4.536-0.402,5.831,1.475c0.69,1,0.848,4.878-1.35,4.124
		c-0.383-0.131-0.696-1.831-1.163-2.222c-0.889-0.746-2.557-0.723-3.638-0.81c-1.454-0.115-2.964,0.04-4.393-0.158
		c-0.001-0.008-0.005-0.016-0.008-0.024C54.838,32.999,56.563,32.172,58.204,31.664"/>
	<path id="path109" fill="#4000FF" d="M50.182,37.248c0.296,2.532,4.686,1.301,2.587-2.183
		C51.294,32.616,50.449,34.908,50.182,37.248"/>
	<path id="path111" fill="#4000FF" d="M86.474,270.489c-1.018,2.52-2.096,5.087-2.794,7.719c-0.629,2.372-1.131,8.169,2.027,9.306
		c3.03,1.092,4.129-4.146,4.09-6.202c-0.06-3.092-1.53-6.249-2.635-9.09C86.936,271.644,86.707,271.063,86.474,270.489"/>
	<path id="path113" fill="#4000FF" d="M86.458,270.43c-2.504,1.054-5.291,2.088-7.507,3.688c-1.968,1.422-5.1,5.633-3.273,8.208
		c1.846,2.602,5.695-0.379,6.939-2.135c1.784-2.519,2.622-5.965,3.559-8.871C86.271,271.025,86.364,270.726,86.458,270.43"/>
	<path id="path115" fill="#4000FF" d="M86.466,270.43c2.504,1.054,5.291,2.088,7.507,3.688c1.968,1.422,5.099,5.633,3.272,8.208
		c-1.845,2.602-5.694-0.379-6.939-2.135c-1.818-2.569-2.669-6.1-3.62-9.066C86.612,270.894,86.539,270.66,86.466,270.43"/>
	<path id="path117" fill="#4000FF" d="M80.05,270.086c-2.026,0.601-4.535,0.401-5.83-1.476c-0.69-0.999-0.847-4.878,1.35-4.123
		c0.382,0.131,0.696,1.831,1.162,2.223c0.89,0.746,2.557,0.724,3.638,0.809c1.454,0.116,2.965-0.039,4.393,0.158
		c0.001,0.01,0.004,0.017,0.008,0.024C83.418,268.75,81.691,269.578,80.05,270.086"/>
	<path id="path119" fill="#4000FF" d="M92.773,270.086c2.026,0.601,4.536,0.401,5.83-1.476c0.69-0.999,0.848-4.876-1.349-4.123
		c-0.382,0.131-0.696,1.831-1.163,2.223c-0.89,0.746-2.556,0.724-3.638,0.809c-1.454,0.116-2.965-0.039-4.393,0.158
		c-0.001,0.009-0.005,0.017-0.008,0.024C89.406,268.75,91.133,269.578,92.773,270.086"/>
	<path id="path121" fill="#4000FF" d="M84.751,264.502c0.296-2.532,4.686-1.302,2.587,2.182
		C85.863,269.134,85.02,266.844,84.751,264.502"/>
	<path id="path123" fill="#4000FF" d="M121.354,270.489c-1.019,2.52-2.097,5.087-2.794,7.719c-0.63,2.372-1.131,8.167,2.025,9.306
		c3.029,1.092,4.131-4.146,4.091-6.202c-0.06-3.09-1.528-6.251-2.634-9.09C121.816,271.644,121.588,271.063,121.354,270.489"/>
	<path id="path125" fill="#4000FF" d="M121.338,270.43c-2.504,1.054-5.291,2.088-7.506,3.688c-1.968,1.422-5.101,5.633-3.273,8.208
		c1.846,2.602,5.694-0.379,6.939-2.135c1.818-2.569,2.668-6.1,3.621-9.066C121.191,270.896,121.266,270.66,121.338,270.43"/>
	<path id="path127" fill="#4000FF" d="M121.348,270.43c2.504,1.054,5.29,2.088,7.506,3.688c1.969,1.422,5.101,5.633,3.272,8.208
		c-1.846,2.602-5.694-0.379-6.938-2.135c-1.818-2.569-2.67-6.1-3.621-9.066C121.493,270.896,121.42,270.66,121.348,270.43"/>
	<path id="path129" fill="#4000FF" d="M114.93,270.086c-2.025,0.601-4.534,0.401-5.828-1.476c-0.689-0.999-0.848-4.878,1.349-4.123
		c0.384,0.131,0.696,1.831,1.163,2.223c0.891,0.746,2.557,0.724,3.639,0.809c1.452,0.116,2.965-0.039,4.392,0.158
		c0.001,0.009,0.005,0.017,0.009,0.024C118.298,268.75,116.572,269.578,114.93,270.086"/>
	<path id="path131" fill="#4000FF" d="M127.654,270.086c2.025,0.601,4.535,0.401,5.83-1.476c0.688-0.999,0.847-4.876-1.349-4.123
		c-0.384,0.131-0.696,1.831-1.163,2.223c-0.891,0.746-2.557,0.724-3.639,0.809c-1.453,0.116-2.965-0.039-4.393,0.158
		c-0.002,0.01-0.004,0.017-0.009,0.024C124.287,268.75,126.014,269.578,127.654,270.086"/>
	<path id="path133" fill="#4000FF" d="M119.631,264.502c0.297-2.532,4.686-1.302,2.588,2.182
		C120.744,269.134,119.9,266.844,119.631,264.502"/>
	<path id="path135" fill="#4000FF" d="M156.235,270.489c-1.019,2.52-2.097,5.087-2.796,7.719c-0.628,2.372-1.13,8.169,2.028,9.306
		c3.03,1.092,4.129-4.146,4.09-6.202c-0.06-3.09-1.526-6.251-2.636-9.09C156.697,271.644,156.467,271.063,156.235,270.489"/>
	<path id="path137" fill="#4000FF" d="M156.219,270.43c-2.504,1.054-5.291,2.088-7.508,3.688c-1.967,1.422-5.099,5.633-3.273,8.208
		c1.846,2.602,5.696-0.379,6.939-2.135c1.785-2.519,2.623-5.965,3.561-8.871C156.032,271.025,156.125,270.726,156.219,270.43"/>
	<path id="path139" fill="#4000FF" d="M156.227,270.43c2.504,1.054,5.292,2.088,7.508,3.688c1.968,1.422,5.1,5.633,3.271,8.208
		c-1.844,2.602-5.693-0.379-6.938-2.135c-1.785-2.519-2.621-5.965-3.56-8.871C156.414,271.025,156.32,270.726,156.227,270.43"/>
	<path id="path141" fill="#4000FF" d="M149.811,270.086c-2.025,0.601-4.535,0.401-5.829-1.476c-0.69-0.999-0.849-4.876,1.35-4.123
		c0.382,0.131,0.695,1.831,1.162,2.223c0.89,0.746,2.558,0.724,3.638,0.809c1.454,0.116,2.967-0.039,4.394,0.158
		c0.001,0.01,0.005,0.017,0.009,0.024C153.178,268.75,151.453,269.578,149.811,270.086"/>
	<path id="path143" fill="#4000FF" d="M162.533,270.086c2.027,0.601,4.537,0.401,5.831-1.476c0.69-0.999,0.848-4.876-1.349-4.123
		c-0.383,0.131-0.695,1.831-1.163,2.223c-0.89,0.746-2.556,0.724-3.638,0.809c-1.453,0.116-2.965-0.039-4.393,0.158
		c-0.003,0.01-0.006,0.017-0.01,0.024C159.166,268.75,160.894,269.578,162.533,270.086"/>
	<path id="path145" fill="#4000FF" d="M154.512,264.502c0.296-2.532,4.686-1.302,2.588,2.182
		C155.623,269.134,154.779,266.844,154.512,264.502"/>
	<path id="path147" fill="#4000FF" d="M51.594,270.489c-1.02,2.518-2.097,5.087-2.795,7.719c-0.629,2.372-1.131,8.169,2.026,9.306
		c3.029,1.092,4.13-4.146,4.09-6.202c-0.06-3.092-1.529-6.249-2.635-9.09C52.056,271.644,51.826,271.063,51.594,270.489"/>
	<path id="path149" fill="#4000FF" d="M51.578,270.43c-2.505,1.054-5.292,2.088-7.508,3.688c-1.968,1.422-5.099,5.633-3.273,8.208
		c1.846,2.602,5.695-0.38,6.939-2.135c1.784-2.519,2.622-5.965,3.559-8.871C51.391,271.026,51.484,270.726,51.578,270.43"/>
	<path id="path151" fill="#4000FF" d="M51.585,270.43c2.504,1.054,5.291,2.088,7.507,3.688c1.968,1.42,5.1,5.633,3.273,8.208
		c-1.846,2.602-5.695-0.379-6.939-2.135c-1.819-2.569-2.67-6.1-3.621-9.066C51.731,270.896,51.659,270.66,51.585,270.43"/>
	<path id="path153" fill="#4000FF" d="M45.17,270.086c-2.026,0.601-4.536,0.401-5.83-1.476c-0.69-0.999-0.847-4.878,1.35-4.123
		c0.382,0.131,0.697,1.831,1.163,2.223c0.89,0.746,2.556,0.724,3.637,0.809c1.454,0.116,2.965-0.039,4.393,0.158
		c0.002,0.01,0.005,0.017,0.009,0.024C48.537,268.75,46.812,269.578,45.17,270.086"/>
	<path id="path155" fill="#4000FF" d="M57.893,270.086c2.027,0.601,4.536,0.403,5.831-1.476c0.689-0.999,0.847-4.878-1.35-4.123
		c-0.382,0.131-0.696,1.831-1.163,2.223c-0.89,0.746-2.556,0.724-3.637,0.809c-1.454,0.116-2.965-0.039-4.394,0.158
		c-0.001,0.01-0.004,0.017-0.009,0.024C54.526,268.75,56.252,269.578,57.893,270.086"/>
	<path id="path157" fill="#4000FF" d="M49.87,264.502c0.297-2.532,4.686-1.302,2.588,2.182
		C50.982,269.136,50.14,266.844,49.87,264.502"/>
	<path id="path159" fill="#4000FF" d="M182.412,272.199c2.373,1.271,4.939,2.835,7.566,3.514c2.39,0.617,6.914,0.021,7.35-3.136
		c0.421-3.048-3.892-4.417-6.217-4.148c-2.901,0.337-5.943,2.29-8.484,3.649C182.557,272.117,182.482,272.16,182.412,272.199"/>
	<path id="path161" fill="#4000FF" d="M182.367,272.217c1.021,3.235,4.189,15.587,9.895,12.668c2.778-1.422,0.543-6.126-0.912-7.727
		c-2.054-2.253-5.459-3.437-8.211-4.614C182.883,272.433,182.623,272.325,182.367,272.217"/>
	<path id="path163" fill="#4000FF" d="M182.362,272.207c1.024-3.237,4.192-15.595,9.899-12.668c2.775,1.423,0.544,6.115-0.912,7.716
		c-2.055,2.256-5.461,3.446-8.214,4.628C182.878,271.992,182.617,272.099,182.362,272.207"/>
	<path id="path165" fill="#4000FF" d="M182.063,279.608c0.462,2.081,0.558,5.203-1.278,6.722c-1.195,0.99-4.287,0.664-3.576-1.556
		c0.133-0.411,1.569-0.841,1.927-1.345c0.739-1.043,0.632-2.99,0.702-4.192c0.096-1.679-0.058-3.408,0.137-5.067
		c0.008-0.003,0.015-0.006,0.021-0.01C180.955,275.792,181.643,277.76,182.063,279.608"/>
	<path id="path167" fill="#4000FF" d="M182.063,264.932c0.464-2.084,0.562-5.204-1.278-6.724c-1.195-0.987-4.291-0.667-3.576,1.556
		c0.131,0.408,1.572,0.838,1.927,1.343c0.739,1.042,0.632,2.993,0.702,4.194c0.096,1.679-0.058,3.408,0.137,5.067
		c0.008,0.002,0.015,0.006,0.021,0.01C180.952,268.748,181.647,266.779,182.063,264.932"/>
	<path id="path169" fill="#4000FF" d="M177.223,274.185c-2.276-0.549-1.304-5.47,1.893-2.983
		C181.037,272.697,179.588,273.782,177.223,274.185"/>
	<path id="path171" fill="#4000FF" d="M182.416,231.968c2.373,1.274,4.941,2.835,7.566,3.516c2.386,0.618,6.916,0.022,7.346-3.138
		c0.414-3.046-3.891-4.415-6.217-4.146c-2.898,0.333-5.943,2.288-8.479,3.649C182.561,231.886,182.486,231.931,182.416,231.968"/>
	<path id="path173" fill="#4000FF" d="M182.362,231.987c1.026,3.236,4.192,15.588,9.899,12.668c2.777-1.422,0.544-6.122-0.912-7.721
		c-2.058-2.256-5.461-3.441-8.214-4.621C182.878,232.202,182.617,232.094,182.362,231.987"/>
	<path id="path175" fill="#4000FF" d="M182.367,231.977c1.021-3.238,4.188-15.588,9.895-12.668c2.778,1.422,0.544,6.121-0.912,7.72
		c-2.055,2.257-5.459,3.442-8.211,4.623C182.883,231.761,182.623,231.869,182.367,231.977"/>
	<path id="path177" fill="#4000FF" d="M182.063,239.371c0.464,2.089,0.562,5.2-1.278,6.724c-1.193,0.989-4.292,0.678-3.576-1.55
		c0.131-0.408,1.572-0.839,1.927-1.342c0.739-1.043,0.632-2.993,0.702-4.195c0.096-1.68-0.058-3.408,0.137-5.068
		c0.008-0.002,0.015-0.006,0.021-0.01C180.952,235.558,181.646,237.526,182.063,239.371"/>
	<path id="path179" fill="#4000FF" d="M182.063,224.702c0.462-2.082,0.558-5.203-1.278-6.724c-1.194-0.988-4.295-0.665-3.576,1.556
		c0.133,0.407,1.57,0.837,1.927,1.342c0.739,1.044,0.632,2.993,0.702,4.194c0.096,1.68-0.058,3.408,0.137,5.068
		c0.008,0.003,0.015,0.006,0.021,0.01C180.955,228.517,181.643,226.549,182.063,224.702"/>
	<path id="path181" fill="#4000FF" d="M177.223,233.956c-2.276-0.549-1.301-5.478,1.893-2.99
		C181.04,232.466,179.588,233.551,177.223,233.956"/>
	<path id="path183" fill="#4000FF" d="M182.412,191.736c2.371,1.275,4.945,2.839,7.57,3.516c2.391,0.618,6.91,0.022,7.346-3.136
		c0.42-3.048-3.891-4.422-6.217-4.154c-2.902,0.337-5.944,2.294-8.484,3.655C182.557,191.657,182.484,191.699,182.412,191.736"/>
	<path id="path185" fill="#4000FF" d="M182.362,191.756c1.026,3.238,4.192,15.59,9.899,12.668c2.777-1.422,0.544-6.121-0.912-7.72
		c-2.058-2.257-5.461-3.442-8.214-4.623C182.878,191.972,182.617,191.864,182.362,191.756"/>
	<path id="path187" fill="#4000FF" d="M182.362,191.746c1.026-3.236,4.192-15.588,9.899-12.668c2.777,1.422,0.544,6.123-0.912,7.722
		c-2.058,2.255-5.461,3.441-8.214,4.621C182.878,191.531,182.617,191.639,182.362,191.746"/>
	<path id="path189" fill="#4000FF" d="M182.063,199.146c0.462,2.084,0.558,5.203-1.278,6.725c-1.195,0.989-4.291,0.665-3.576-1.557
		c0.131-0.408,1.572-0.838,1.927-1.342c0.739-1.044,0.632-2.993,0.702-4.194c0.096-1.671-0.082-3.435,0.148-5.072
		C180.965,195.294,181.646,197.315,182.063,199.146"/>
	<path id="path191" fill="#4000FF" d="M182.063,184.471c0.462-2.082,0.558-5.203-1.278-6.723c-1.195-0.99-4.291-0.666-3.576,1.557
		c0.131,0.408,1.572,0.838,1.927,1.34c0.739,1.044,0.632,2.994,0.702,4.196c0.096,1.671-0.082,3.435,0.148,5.072
		C180.965,188.325,181.646,186.302,182.063,184.471"/>
	<path id="path193" fill="#4000FF" d="M177.223,193.726c-2.277-0.548-1.301-5.467,1.893-2.99
		C181.042,192.233,179.584,193.316,177.223,193.726"/>
	<path id="path195" fill="#4000FF" d="M182.412,111.277c2.372,1.272,4.942,2.838,7.566,3.515c2.39,0.617,6.914,0.021,7.35-3.137
		c0.421-3.048-3.892-4.417-6.217-4.148c-2.902,0.337-5.943,2.29-8.484,3.65C182.557,111.196,182.482,111.238,182.412,111.277"/>
	<path id="path197" fill="#4000FF" d="M182.367,111.296c1.021,3.236,4.189,15.586,9.895,12.667c2.778-1.422,0.543-6.126-0.912-7.725
		c-2.053-2.253-5.459-3.438-8.211-4.616C182.883,111.512,182.623,111.403,182.367,111.296"/>
	<path id="path199" fill="#4000FF" d="M182.362,111.286c1.024-3.238,4.193-15.595,9.899-12.668c2.775,1.423,0.544,6.115-0.912,7.716
		c-2.055,2.257-5.461,3.445-8.214,4.627C182.878,111.071,182.617,111.178,182.362,111.286"/>
	<path id="path201" fill="#4000FF" d="M182.063,118.685c0.462,2.082,0.558,5.205-1.278,6.725c-1.268,1.05-4.248,0.609-3.547-1.614
		c0.105-0.333,1.645-0.934,1.977-1.452c0.694-1.085,0.572-3.039,0.636-4.262c0.081-1.588-0.101-3.297,0.146-4.842
		C180.955,114.871,181.643,116.839,182.063,118.685"/>
	<path id="path203" fill="#4000FF" d="M182.063,104.011c0.464-2.084,0.562-5.203-1.278-6.724c-1.194-0.987-4.292-0.666-3.576,1.556
		c0.131,0.408,1.572,0.839,1.927,1.342c0.739,1.042,0.632,2.993,0.702,4.195c0.096,1.679-0.058,3.408,0.137,5.067
		c0.008,0.002,0.015,0.006,0.021,0.01C180.953,107.827,181.647,105.858,182.063,104.011"/>
	<path id="path205" fill="#4000FF" d="M177.223,113.264c-2.276-0.55-1.304-5.47,1.893-2.984
		C181.037,111.776,179.588,112.859,177.223,113.264"/>
	<path id="path207" fill="#4000FF" d="M182.416,71.046c2.373,1.274,4.941,2.834,7.566,3.515c2.387,0.619,6.916,0.022,7.346-3.137
		c0.414-3.047-3.891-4.415-6.217-4.148c-2.898,0.334-5.943,2.29-8.479,3.649C182.561,70.965,182.486,71.008,182.416,71.046"/>
	<path id="path209" fill="#4000FF" d="M182.362,71.065c1.026,3.237,4.192,15.589,9.899,12.668c2.777-1.422,0.544-6.122-0.912-7.721
		c-2.058-2.255-5.461-3.44-8.214-4.621C182.878,71.281,182.617,71.173,182.362,71.065"/>
	<path id="path211" fill="#4000FF" d="M182.367,71.056c1.021-3.238,4.188-15.588,9.895-12.668c2.778,1.422,0.543,6.121-0.912,7.72
		c-2.055,2.256-5.458,3.442-8.211,4.622C182.883,70.84,182.623,70.948,182.367,71.056"/>
	<path id="path213" fill="#4000FF" d="M182.063,78.451c0.464,2.088,0.562,5.2-1.278,6.724c-1.193,0.988-4.293,0.677-3.576-1.551
		c0.131-0.409,1.572-0.839,1.927-1.342c0.739-1.043,0.632-2.994,0.702-4.195c0.096-1.679-0.058-3.408,0.137-5.067
		c0.008-0.002,0.015-0.005,0.021-0.01C180.952,74.637,181.646,76.606,182.063,78.451"/>
	<path id="path215" fill="#4000FF" d="M182.063,63.781c0.464-2.082,0.558-5.203-1.278-6.724c-1.194-0.988-4.287-0.67-3.576,1.551
		c0.133,0.412,1.569,0.841,1.927,1.346c0.739,1.044,0.632,2.993,0.702,4.195c0.096,1.679-0.058,3.408,0.137,5.067
		c0.008,0.002,0.015,0.005,0.021,0.01C180.955,67.596,181.643,65.628,182.063,63.781"/>
	<path id="path217" fill="#4000FF" d="M177.223,73.034c-2.276-0.547-1.303-5.476,1.893-2.988
		C181.04,71.545,179.588,72.63,177.223,73.034"/>
	<path id="path219" fill="#4000FF" d="M182.412,30.816c2.369,1.275,4.945,2.838,7.57,3.515c2.391,0.617,6.91,0.021,7.346-3.137
		c0.42-3.047-3.891-4.422-6.217-4.153c-2.902,0.336-5.944,2.294-8.484,3.655C182.557,30.735,182.484,30.778,182.412,30.816"/>
	<path id="path221" fill="#4000FF" d="M182.362,30.835c1.026,3.237,4.192,15.59,9.899,12.668c2.777-1.422,0.544-6.122-0.912-7.721
		c-2.058-2.256-5.461-3.441-8.214-4.622C182.878,31.051,182.617,30.943,182.362,30.835"/>
	<path id="path223" fill="#4000FF" d="M182.362,30.826c1.026-3.237,4.192-15.589,9.899-12.668c2.777,1.422,0.544,6.122-0.912,7.721
		c-2.058,2.255-5.461,3.44-8.214,4.621C182.878,30.61,182.617,30.718,182.362,30.826"/>
	<path id="path225" fill="#4000FF" d="M182.063,38.225c0.462,2.081,0.558,5.203-1.278,6.724c-1.195,0.99-4.291,0.665-3.576-1.556
		c0.131-0.408,1.572-0.839,1.927-1.341c0.739-1.043,0.632-2.993,0.702-4.195c0.096-1.67-0.082-3.436,0.148-5.071
		C180.965,34.372,181.646,36.395,182.063,38.225"/>
	<path id="path227" fill="#4000FF" d="M182.063,23.551c0.462-2.082,0.558-5.203-1.278-6.724c-1.195-0.99-4.291-0.665-3.576,1.557
		c0.131,0.408,1.572,0.838,1.927,1.341c0.739,1.043,0.632,2.993,0.702,4.195c0.096,1.671-0.082,3.436,0.148,5.072
		C180.965,27.403,181.646,25.381,182.063,23.551"/>
	<path id="path229" fill="#4000FF" d="M177.223,32.804c-2.277-0.548-1.301-5.467,1.893-2.989
		C181.042,31.31,179.584,32.395,177.223,32.804"/>
	<path id="path231" fill="#4000FF" d="M182.412,151.506c2.369,1.275,4.945,2.839,7.57,3.516c2.391,0.617,6.91,0.021,7.346-3.138
		c0.42-3.048-3.891-4.417-6.217-4.147c-2.902,0.337-5.943,2.289-8.484,3.65C182.557,151.425,182.484,151.469,182.412,151.506"/>
	<path id="path233" fill="#4000FF" d="M182.362,151.526c1.026,3.237,4.192,15.589,9.899,12.668c2.777-1.422,0.544-6.121-0.912-7.721
		c-2.058-2.255-5.461-3.441-8.214-4.621C182.878,151.741,182.617,151.634,182.362,151.526"/>
	<path id="path235" fill="#4000FF" d="M182.362,151.516c1.026-3.237,4.192-15.589,9.899-12.667c2.777,1.421,0.544,6.121-0.912,7.72
		c-2.058,2.255-5.461,3.442-8.214,4.623C182.878,151.301,182.617,151.408,182.362,151.516"/>
	<path id="path237" fill="#4000FF" d="M182.063,158.917c0.462,2.082,0.558,5.203-1.278,6.722c-1.197,0.993-4.287,0.667-3.576-1.556
		c0.131-0.408,1.57-0.843,1.927-1.344c0.739-1.045,0.632-2.995,0.702-4.197c0.096-1.677-0.058-3.404,0.137-5.062
		c0.008-0.003,0.015-0.005,0.021-0.01C180.955,155.102,181.643,157.069,182.063,158.917"/>
	<path id="path239" fill="#4000FF" d="M182.063,144.241c0.462-2.083,0.56-5.202-1.278-6.725c-1.195-0.99-4.291-0.665-3.576,1.557
		c0.131,0.408,1.572,0.839,1.927,1.342c0.739,1.043,0.632,2.993,0.702,4.195c0.096,1.67-0.082,3.436,0.148,5.072
		C180.962,148.093,181.646,146.072,182.063,144.241"/>
	<path id="path241" fill="#4000FF" d="M177.223,153.49c-2.271-0.534-1.305-5.472,1.893-2.979
		C181.033,152.006,179.584,153.092,177.223,153.49"/>
	<path id="path243" fill="#4000FF" d="M25.915,272.199c-2.372,1.271-4.94,2.835-7.565,3.514c-2.39,0.617-6.915,0.021-7.35-3.136
		c-0.421-3.048,3.89-4.417,6.216-4.148c2.902,0.337,5.944,2.29,8.484,3.649C25.771,272.117,25.845,272.16,25.915,272.199"/>
	<path id="path245" fill="#4000FF" d="M25.961,272.217c-1.021,3.235-4.19,15.585-9.895,12.668c-2.778-1.422-0.543-6.126,0.913-7.727
		c2.053-2.253,5.458-3.437,8.21-4.614C25.445,272.433,25.704,272.325,25.961,272.217"/>
	<path id="path247" fill="#4000FF" d="M25.965,272.207c-1.023-3.239-4.193-15.593-9.899-12.668
		c-2.776,1.423-0.544,6.115,0.913,7.716c2.055,2.256,5.458,3.446,8.213,4.628C25.448,271.992,25.709,272.099,25.965,272.207"/>
	<path id="path249" fill="#4000FF" d="M26.264,279.608c-0.462,2.081-0.558,5.203,1.279,6.722c1.196,0.99,4.288,0.664,3.575-1.556
		c-0.132-0.411-1.569-0.839-1.926-1.345c-0.739-1.043-0.633-2.99-0.702-4.192c-0.096-1.679,0.058-3.408-0.137-5.067
		c-0.007-0.003-0.015-0.006-0.021-0.01C27.374,275.792,26.686,277.76,26.264,279.608"/>
	<path id="path251" fill="#4000FF" d="M26.264,264.932c-0.464-2.084-0.561-5.204,1.279-6.724c1.196-0.987,4.291-0.667,3.575,1.556
		c-0.131,0.408-1.57,0.838-1.926,1.343c-0.739,1.042-0.633,2.993-0.702,4.194c-0.096,1.677,0.058,3.408-0.137,5.067
		c-0.007,0.002-0.015,0.006-0.021,0.01C27.375,268.748,26.68,266.779,26.264,264.932"/>
	<path id="path253" fill="#4000FF" d="M31.106,274.185c2.276-0.55,1.301-5.469-1.894-2.983
		C27.29,272.697,28.739,273.782,31.106,274.185"/>
	<path id="path255" fill="#4000FF" d="M25.911,231.968c-2.375,1.274-4.939,2.835-7.565,3.516c-2.387,0.618-6.917,0.022-7.346-3.138
		c-0.414-3.046,3.89-4.415,6.216-4.146c2.9,0.333,5.943,2.288,8.479,3.649C25.768,231.886,25.84,231.931,25.911,231.968"/>
	<path id="path257" fill="#4000FF" d="M25.965,231.987c-1.026,3.237-4.191,15.588-9.899,12.668
		c-2.777-1.421-0.544-6.122,0.913-7.721c2.057-2.256,5.459-3.441,8.213-4.621C25.448,232.202,25.709,232.094,25.965,231.987"/>
	<path id="path259" fill="#4000FF" d="M25.961,231.977c-1.022-3.238-4.188-15.588-9.895-12.668c-2.777,1.422-0.543,6.12,0.913,7.72
		c2.054,2.255,5.457,3.443,8.21,4.623C25.445,231.761,25.705,231.869,25.961,231.977"/>
	<path id="path261" fill="#4000FF" d="M26.264,239.371c-0.464,2.089-0.561,5.201,1.279,6.724c1.193,0.989,4.292,0.678,3.575-1.55
		c-0.131-0.409-1.57-0.839-1.926-1.342c-0.739-1.043-0.633-2.993-0.702-4.195c-0.096-1.68,0.058-3.408-0.137-5.068
		c-0.007-0.002-0.015-0.006-0.021-0.01C27.376,235.558,26.681,237.526,26.264,239.371"/>
	<path id="path263" fill="#4000FF" d="M26.264,224.702c-0.462-2.082-0.558-5.203,1.279-6.724c1.195-0.988,4.294-0.665,3.575,1.556
		c-0.132,0.407-1.57,0.837-1.926,1.342c-0.74,1.044-0.633,2.993-0.702,4.194c-0.096,1.68,0.058,3.408-0.137,5.068
		c-0.007,0.003-0.015,0.006-0.021,0.01C27.374,228.516,26.686,226.55,26.264,224.702"/>
	<path id="path265" fill="#4000FF" d="M31.106,233.956c2.277-0.549,1.299-5.478-1.894-2.99
		C27.287,232.466,28.74,233.551,31.106,233.956"/>
	<path id="path267" fill="#4000FF" d="M25.915,191.736c-2.37,1.275-4.945,2.839-7.569,3.516c-2.39,0.618-6.911,0.022-7.346-3.136
		c-0.419-3.048,3.889-4.422,6.216-4.154c2.903,0.337,5.945,2.294,8.484,3.655C25.771,191.657,25.845,191.699,25.915,191.736"/>
	<path id="path269" fill="#4000FF" d="M25.965,191.756c-1.026,3.238-4.191,15.588-9.899,12.668c-2.777-1.421-0.544-6.121,0.913-7.72
		c2.056-2.255,5.46-3.441,8.213-4.623C25.448,191.972,25.709,191.864,25.965,191.756"/>
	<path id="path271" fill="#4000FF" d="M25.965,191.746c-1.026-3.237-4.191-15.587-9.899-12.668
		c-2.777,1.422-0.544,6.123,0.913,7.722c2.057,2.255,5.46,3.44,8.213,4.621C25.448,191.531,25.709,191.639,25.965,191.746"/>
	<path id="path273" fill="#4000FF" d="M26.264,199.146c-0.462,2.084-0.558,5.203,1.279,6.725c1.196,0.989,4.291,0.665,3.575-1.557
		c-0.131-0.408-1.57-0.838-1.926-1.342c-0.74-1.044-0.633-2.993-0.702-4.194c-0.096-1.671,0.083-3.437-0.15-5.072
		C27.363,195.295,26.682,197.315,26.264,199.146"/>
	<path id="path275" fill="#4000FF" d="M26.264,184.471c-0.462-2.082-0.558-5.203,1.279-6.723c1.196-0.989,4.29-0.666,3.575,1.557
		c-0.131,0.408-1.571,0.838-1.926,1.34c-0.74,1.044-0.633,2.994-0.702,4.196c-0.096,1.671,0.083,3.437-0.15,5.072
		C27.363,188.324,26.682,186.302,26.264,184.471"/>
	<path id="path277" fill="#4000FF" d="M31.106,193.726c2.278-0.55,1.299-5.466-1.894-2.99
		C27.284,192.233,28.745,193.316,31.106,193.726"/>
	<path id="path279" fill="#4000FF" d="M25.915,111.277c-2.371,1.272-4.941,2.838-7.565,3.515c-2.39,0.617-6.915,0.021-7.35-3.137
		c-0.42-3.048,3.89-4.417,6.216-4.148c2.903,0.337,5.943,2.29,8.484,3.65C25.771,111.195,25.845,111.239,25.915,111.277"/>
	<path id="path281" fill="#4000FF" d="M25.961,111.296c-1.022,3.236-4.19,15.586-9.895,12.667c-2.778-1.421-0.543-6.126,0.913-7.725
		c2.053-2.253,5.458-3.439,8.21-4.616C25.445,111.512,25.705,111.403,25.961,111.296"/>
	<path id="path283" fill="#4000FF" d="M25.965,111.286c-1.023-3.239-4.193-15.594-9.899-12.668
		c-2.776,1.423-0.545,6.115,0.913,7.716c2.055,2.257,5.459,3.445,8.213,4.627C25.448,111.071,25.71,111.178,25.965,111.286"/>
	<path id="path285" fill="#4000FF" d="M26.264,118.685c-0.462,2.083-0.558,5.204,1.279,6.725c1.268,1.049,4.249,0.609,3.546-1.614
		c-0.105-0.333-1.646-0.934-1.977-1.452c-0.695-1.085-0.573-3.039-0.635-4.262c-0.081-1.588,0.101-3.298-0.146-4.842
		C27.374,114.871,26.686,116.839,26.264,118.685"/>
	<path id="path287" fill="#4000FF" d="M26.264,104.011c-0.464-2.084-0.561-5.204,1.279-6.724c1.195-0.987,4.291-0.666,3.575,1.556
		c-0.131,0.408-1.57,0.839-1.926,1.342c-0.739,1.042-0.633,2.993-0.702,4.195c-0.096,1.679,0.058,3.408-0.137,5.067
		c-0.007,0.002-0.015,0.006-0.021,0.01C27.375,107.827,26.68,105.858,26.264,104.011"/>
	<path id="path289" fill="#4000FF" d="M31.106,113.264c2.276-0.551,1.301-5.47-1.894-2.984
		C27.289,111.777,28.74,112.859,31.106,113.264"/>
	<path id="path291" fill="#4000FF" d="M25.911,71.046c-2.373,1.273-4.939,2.834-7.565,3.515c-2.387,0.619-6.917,0.022-7.346-3.137
		c-0.414-3.047,3.89-4.415,6.216-4.148c2.9,0.334,5.943,2.29,8.479,3.649C25.768,70.965,25.84,71.008,25.911,71.046"/>
	<path id="path293" fill="#4000FF" d="M25.965,71.065c-1.026,3.238-4.191,15.588-9.899,12.668c-2.777-1.421-0.544-6.122,0.913-7.721
		c2.057-2.255,5.459-3.44,8.213-4.621C25.448,71.281,25.71,71.173,25.965,71.065"/>
	<path id="path295" fill="#4000FF" d="M25.961,71.056c-1.022-3.238-4.188-15.588-9.895-12.668c-2.778,1.421-0.543,6.121,0.913,7.72
		c2.055,2.255,5.457,3.442,8.21,4.622C25.445,70.84,25.705,70.948,25.961,71.056"/>
	<path id="path297" fill="#4000FF" d="M26.264,78.451c-0.464,2.088-0.561,5.201,1.279,6.724c1.193,0.988,4.292,0.677,3.575-1.551
		c-0.131-0.409-1.57-0.839-1.926-1.342c-0.739-1.043-0.633-2.994-0.702-4.195c-0.096-1.679,0.058-3.408-0.137-5.067
		c-0.007-0.002-0.015-0.005-0.021-0.01C27.376,74.638,26.681,76.605,26.264,78.451"/>
	<path id="path299" fill="#4000FF" d="M26.264,63.781c-0.462-2.083-0.558-5.203,1.279-6.724c1.194-0.988,4.286-0.67,3.575,1.551
		c-0.132,0.412-1.568,0.841-1.926,1.346c-0.74,1.044-0.633,2.993-0.702,4.195c-0.096,1.679,0.058,3.408-0.137,5.067
		c-0.008,0.002-0.015,0.005-0.021,0.01C27.374,67.595,26.686,65.628,26.264,63.781"/>
	<path id="path301" fill="#4000FF" d="M31.106,73.034c2.276-0.548,1.3-5.476-1.894-2.988C27.288,71.545,28.74,72.63,31.106,73.034"
		/>
	<path id="path303" fill="#4000FF" d="M25.915,30.816c-2.37,1.275-4.945,2.838-7.569,3.515c-2.39,0.617-6.911,0.021-7.346-3.137
		c-0.419-3.047,3.889-4.422,6.216-4.153c2.903,0.336,5.945,2.294,8.484,3.655C25.771,30.735,25.845,30.778,25.915,30.816"/>
	<path id="path305" fill="#4000FF" d="M25.965,30.835c-1.026,3.239-4.191,15.588-9.899,12.668c-2.777-1.421-0.544-6.122,0.913-7.721
		c2.057-2.255,5.46-3.44,8.213-4.622C25.448,31.051,25.71,30.943,25.965,30.835"/>
	<path id="path307" fill="#4000FF" d="M25.965,30.826c-1.026-3.238-4.191-15.588-9.899-12.668c-2.777,1.421-0.544,6.122,0.913,7.721
		c2.057,2.255,5.46,3.44,8.213,4.621C25.448,30.61,25.71,30.718,25.965,30.826"/>
	<path id="path309" fill="#4000FF" d="M26.264,38.225c-0.462,2.082-0.558,5.203,1.279,6.724c1.196,0.99,4.291,0.665,3.575-1.556
		c-0.131-0.408-1.57-0.839-1.926-1.341c-0.74-1.043-0.633-2.993-0.702-4.195c-0.096-1.67,0.083-3.437-0.15-5.071
		C27.363,34.373,26.681,36.394,26.264,38.225"/>
	<path id="path311" fill="#4000FF" d="M26.264,23.551c-0.462-2.082-0.558-5.203,1.279-6.724c1.196-0.99,4.291-0.665,3.575,1.557
		c-0.131,0.408-1.57,0.838-1.926,1.341c-0.74,1.043-0.633,2.993-0.702,4.195c-0.096,1.67,0.083,3.436-0.15,5.072
		C27.363,27.402,26.682,25.381,26.264,23.551"/>
	<path id="path313" fill="#4000FF" d="M31.106,32.804c2.277-0.549,1.299-5.466-1.894-2.989
		C27.284,31.311,28.745,32.395,31.106,32.804"/>
	<path id="path315" fill="#4000FF" d="M25.915,151.506c-2.37,1.275-4.945,2.839-7.569,3.516c-2.391,0.617-6.911,0.021-7.346-3.138
		c-0.42-3.048,3.89-4.417,6.216-4.147c2.903,0.337,5.943,2.289,8.484,3.65C25.771,151.425,25.845,151.469,25.915,151.506"/>
	<path id="path317" fill="#4000FF" d="M25.965,151.526c-1.026,3.237-4.191,15.587-9.899,12.668
		c-2.777-1.422-0.544-6.121,0.913-7.721c2.057-2.254,5.46-3.441,8.213-4.621C25.448,151.741,25.709,151.634,25.965,151.526"/>
	<path id="path319" fill="#4000FF" d="M25.965,151.516c-1.026-3.238-4.191-15.587-9.899-12.667c-2.777,1.421-0.544,6.121,0.913,7.72
		c2.057,2.255,5.459,3.441,8.213,4.623C25.448,151.301,25.709,151.408,25.965,151.516"/>
	<path id="path321" fill="#4000FF" d="M26.264,158.917c-0.462,2.082-0.558,5.203,1.279,6.722c1.197,0.993,4.287,0.667,3.575-1.556
		c-0.131-0.409-1.57-0.842-1.926-1.344c-0.74-1.044-0.633-2.995-0.702-4.197c-0.096-1.677,0.058-3.404-0.137-5.062
		c-0.007-0.003-0.015-0.005-0.021-0.01C27.374,155.102,26.686,157.069,26.264,158.917"/>
	<path id="path323" fill="#4000FF" d="M26.264,144.241c-0.461-2.084-0.559-5.202,1.279-6.725c1.196-0.99,4.291-0.665,3.575,1.557
		c-0.131,0.408-1.571,0.839-1.926,1.342c-0.74,1.043-0.633,2.993-0.702,4.195c-0.096,1.67,0.083,3.436-0.15,5.072
		C27.365,148.092,26.682,146.073,26.264,144.241"/>
	<path id="path325" fill="#4000FF" d="M31.106,153.49c2.271-0.535,1.303-5.472-1.894-2.979
		C27.295,152.006,28.744,153.092,31.106,153.49"/>
	<path id="path327" fill="none" stroke="#000000" stroke-width="0.0268" stroke-miterlimit="10" d="M91.067,182.843H91.1"/>
	<path id="path329" fill="#4000FF" stroke="#4000FF" stroke-width="0.0268" stroke-miterlimit="10" d="M94.198,140.099
		c2.052,0,19.931-0.169,19.931,0.167c0,4.063,0,8.126,0,12.189c0,2.346,0,4.694,0,7.04c0,0.538,0.389,3.177,0,3.593
		c-1.268,1.363-19.931-0.802-19.931-0.167C94.198,155.312,94.198,147.706,94.198,140.099"/>
	<path id="path331" fill="#FFFFFF" d="M95.443,144.409c0.831-0.958,1.661-1.916,2.492-2.873c0.415,1.437,0.83,2.873,1.246,4.31
		C97.935,145.367,96.689,144.888,95.443,144.409"/>
	<path id="path333" fill="#FFFFFF" d="M110.393,141.536c0.83,0.958,1.661,1.915,2.49,2.873c-1.244,0.479-2.49,0.958-3.736,1.437
		C109.562,144.409,109.978,142.972,110.393,141.536"/>
	<path id="path335" fill="#FFFFFF" d="M110.471,161.569c0.83-0.958,1.661-1.916,2.492-2.874c-1.247-0.479-2.492-0.958-3.736-1.437
		C109.641,158.695,110.055,160.132,110.471,161.569"/>
	<path id="path337" fill="#FFFFFF" d="M97.935,161.651c-0.831-0.958-1.661-1.914-2.492-2.872c1.246-0.479,2.492-0.958,3.737-1.437
		C98.765,158.778,98.35,160.214,97.935,161.651"/>
	<path id="path339" fill="#FFFFFF" d="M104.164,140.099c-0.821,2.842-1.643,5.683-2.464,8.524c-0.306,1.058-6.312,2.513-7.502,2.97
		c1.191,0.458,7.197,1.912,7.502,2.972c0.821,2.839,1.643,5.682,2.464,8.523c0.822-2.841,1.643-5.684,2.463-8.523
		c0.307-1.059,6.312-2.514,7.502-2.972c-1.189-0.457-7.195-1.912-7.502-2.97C105.807,145.782,104.986,142.941,104.164,140.099"/>
	<path id="path341" fill="#FFFFFF" stroke="#FFFFFF" stroke-width="0.0268" stroke-miterlimit="10" d="M165.205,144.409
		c-0.406,1.871-0.811,3.742-1.217,5.613c-0.142,0.652-4.248,1.351-5.012,1.571c0.764,0.221,4.87,0.919,5.012,1.57
		c0.406,1.871,0.811,3.742,1.217,5.615c0.404-1.873,0.811-3.744,1.217-5.615c0.141-0.651,4.248-1.349,5.012-1.57
		c-0.764-0.22-4.871-0.919-5.012-1.571C166.016,148.151,165.609,146.28,165.205,144.409"/>
	<path id="path343" fill="#FFFFFF" stroke="#FFFFFF" stroke-width="0.0268" stroke-miterlimit="10" d="M165.191,124.284
		c-0.404,1.871-0.811,3.742-1.216,5.614c-0.142,0.651-4.247,1.35-5.013,1.57c0.766,0.221,4.871,0.919,5.013,1.571
		c0.405,1.871,0.812,3.742,1.216,5.614c0.406-1.871,0.812-3.743,1.219-5.614c0.141-0.652,4.247-1.35,5.011-1.571
		c-0.764-0.22-4.87-0.919-5.011-1.57C166.004,128.026,165.598,126.155,165.191,124.284"/>
	<path id="path345" fill="#FFFFFF" stroke="#FFFFFF" stroke-width="0.0268" stroke-miterlimit="10" d="M165.226,164.509
		c-0.406,1.871-0.812,3.743-1.216,5.614c-0.143,0.651-4.248,1.35-5.013,1.57c0.764,0.22,4.87,0.919,5.013,1.57
		c0.404,1.871,0.81,3.743,1.216,5.614c0.405-1.871,0.812-3.743,1.217-5.614c0.142-0.651,4.249-1.35,5.013-1.57
		c-0.764-0.22-4.871-0.919-5.013-1.57C166.037,168.252,165.631,166.381,165.226,164.509"/>
	<path id="path347" fill="#FFFFFF" stroke="#FFFFFF" stroke-width="0.0268" stroke-miterlimit="10" d="M147.764,144.409
		c-0.404,1.871-0.811,3.742-1.217,5.613c-0.141,0.652-4.248,1.351-5.012,1.571c0.764,0.221,4.871,0.919,5.012,1.57
		c0.406,1.871,0.812,3.742,1.217,5.615c0.406-1.873,0.811-3.744,1.217-5.615c0.141-0.651,4.248-1.349,5.012-1.57
		c-0.764-0.22-4.871-0.919-5.012-1.571C148.574,148.151,148.17,146.28,147.764,144.409"/>
	<path id="path349" fill="#FFFFFF" stroke="#FFFFFF" stroke-width="0.0268" stroke-miterlimit="10" d="M147.752,124.284
		c-0.405,1.871-0.811,3.742-1.217,5.614c-0.142,0.651-4.248,1.35-5.012,1.57c0.764,0.221,4.87,0.919,5.012,1.571
		c0.406,1.871,0.812,3.742,1.217,5.614c0.406-1.871,0.811-3.743,1.217-5.614c0.141-0.652,4.248-1.35,5.012-1.571
		c-0.764-0.22-4.871-0.919-5.012-1.57C148.562,128.026,148.158,126.155,147.752,124.284"/>
	<path id="path351" fill="#FFFFFF" stroke="#FFFFFF" stroke-width="0.0268" stroke-miterlimit="10" d="M147.785,164.509
		c-0.405,1.871-0.811,3.743-1.217,5.614c-0.141,0.651-4.248,1.35-5.012,1.57c0.764,0.22,4.871,0.919,5.012,1.57
		c0.406,1.871,0.812,3.743,1.217,5.614c0.405-1.871,0.812-3.743,1.217-5.614c0.142-0.651,4.248-1.35,5.012-1.57
		c-0.764-0.22-4.87-0.919-5.012-1.57C148.597,168.252,148.19,166.381,147.785,164.509"/>
	<path id="path353" fill="#FFFFFF" stroke="#FFFFFF" stroke-width="0.0268" stroke-miterlimit="10" d="M112.883,203.317
		c-0.404,1.871-0.81,3.743-1.215,5.615c-0.142,0.651-4.248,1.349-5.012,1.57c0.764,0.22,4.87,0.919,5.012,1.572
		c0.405,1.869,0.811,3.741,1.215,5.611c0.406-1.87,0.812-3.742,1.219-5.611c0.141-0.653,4.248-1.352,5.011-1.572
		c-0.763-0.22-4.87-0.918-5.011-1.57C113.695,207.06,113.289,205.188,112.883,203.317"/>
	<path id="path355" fill="#FFFFFF" stroke="#FFFFFF" stroke-width="0.0268" stroke-miterlimit="10" d="M95.443,203.317
		c-0.405,1.871-0.811,3.743-1.216,5.615c-0.142,0.651-4.249,1.349-5.013,1.57c0.764,0.22,4.871,0.919,5.013,1.572
		c0.405,1.869,0.811,3.741,1.216,5.611c0.406-1.87,0.812-3.742,1.217-5.611c0.142-0.653,4.249-1.352,5.012-1.572
		c-0.764-0.22-4.871-0.918-5.012-1.57C96.255,207.06,95.85,205.188,95.443,203.317"/>
	<path id="path357" fill="#FFFFFF" stroke="#FFFFFF" stroke-width="0.0268" stroke-miterlimit="10" d="M130.312,203.284
		c-0.406,1.871-0.812,3.743-1.218,5.614c-0.141,0.651-4.249,1.349-5.013,1.57c0.764,0.22,4.872,0.919,5.013,1.57
		c0.405,1.871,0.812,3.743,1.218,5.614c0.405-1.871,0.811-3.743,1.215-5.614c0.143-0.651,4.248-1.35,5.013-1.57
		c-0.765-0.221-4.87-0.919-5.013-1.57C131.123,207.027,130.718,205.155,130.312,203.284"/>
	<path id="path359" fill="#FFFFFF" stroke="#FFFFFF" stroke-width="0.0268" stroke-miterlimit="10" d="M78.053,203.336
		c-0.405,1.871-0.811,3.743-1.216,5.614c-0.141,0.652-4.248,1.35-5.012,1.57c0.764,0.22,4.871,0.918,5.012,1.57
		c0.405,1.871,0.811,3.743,1.216,5.613c0.406-1.87,0.812-3.742,1.218-5.613c0.141-0.652,4.248-1.35,5.011-1.57
		c-0.764-0.22-4.87-0.918-5.011-1.57C78.864,207.079,78.459,205.208,78.053,203.336"/>
	<path id="path361" fill="#FFFFFF" stroke="#FFFFFF" stroke-width="0.0268" stroke-miterlimit="10" d="M165.167,203.313
		c-0.405,1.871-0.811,3.742-1.216,5.614c-0.143,0.651-4.249,1.349-5.014,1.57c0.765,0.219,4.871,0.918,5.014,1.57
		c0.405,1.87,0.811,3.743,1.216,5.612c0.406-1.869,0.812-3.742,1.218-5.612c0.141-0.652,4.247-1.351,5.012-1.57
		c-0.765-0.221-4.871-0.919-5.012-1.57C165.979,207.055,165.573,205.184,165.167,203.313"/>
	<path id="path363" fill="#FFFFFF" stroke="#FFFFFF" stroke-width="0.0268" stroke-miterlimit="10" d="M147.727,203.313
		c-0.405,1.871-0.812,3.742-1.217,5.614c-0.142,0.651-4.247,1.349-5.012,1.57c0.765,0.219,4.87,0.918,5.012,1.57
		c0.405,1.87,0.812,3.743,1.217,5.612c0.406-1.869,0.812-3.742,1.218-5.612c0.142-0.652,4.247-1.351,5.011-1.57
		c-0.764-0.221-4.869-0.919-5.011-1.57C148.538,207.055,148.133,205.184,147.727,203.313"/>
	<path id="path365" fill="#FFFFFF" stroke="#FFFFFF" stroke-width="0.0268" stroke-miterlimit="10" d="M112.883,223.433
		c-0.404,1.871-0.81,3.743-1.215,5.614c-0.142,0.651-4.248,1.35-5.012,1.57c0.764,0.22,4.87,0.918,5.012,1.57
		c0.405,1.871,0.811,3.743,1.215,5.613c0.406-1.87,0.812-3.742,1.219-5.613c0.141-0.652,4.248-1.35,5.011-1.57
		c-0.763-0.22-4.87-0.919-5.011-1.57C113.695,227.175,113.289,225.304,112.883,223.433"/>
	<path id="path367" fill="#FFFFFF" stroke="#FFFFFF" stroke-width="0.0268" stroke-miterlimit="10" d="M95.443,223.433
		c-0.405,1.871-0.811,3.743-1.216,5.614c-0.142,0.651-4.249,1.35-5.013,1.57c0.764,0.22,4.871,0.918,5.013,1.57
		c0.405,1.871,0.811,3.743,1.216,5.613c0.406-1.87,0.812-3.742,1.217-5.613c0.142-0.652,4.249-1.35,5.012-1.57
		c-0.764-0.22-4.871-0.919-5.012-1.57C96.255,227.175,95.85,225.304,95.443,223.433"/>
	<path id="path369" fill="#FFFFFF" stroke="#FFFFFF" stroke-width="0.0268" stroke-miterlimit="10" d="M130.312,223.399
		c-0.406,1.871-0.812,3.742-1.218,5.614c-0.141,0.651-4.249,1.349-5.013,1.57c0.764,0.219,4.872,0.918,5.013,1.57
		c0.405,1.87,0.812,3.743,1.218,5.612c0.405-1.869,0.811-3.742,1.215-5.612c0.143-0.652,4.248-1.351,5.013-1.57
		c-0.765-0.221-4.87-0.919-5.013-1.57C131.123,227.141,130.718,225.271,130.312,223.399"/>
	<path id="path371" fill="#FFFFFF" stroke="#FFFFFF" stroke-width="0.0268" stroke-miterlimit="10" d="M78.053,223.452
		c-0.405,1.871-0.811,3.743-1.216,5.614c-0.141,0.651-4.248,1.35-5.012,1.57c0.764,0.22,4.871,0.918,5.012,1.57
		c0.405,1.871,0.811,3.743,1.216,5.613c0.406-1.87,0.812-3.742,1.218-5.613c0.141-0.652,4.248-1.35,5.011-1.57
		c-0.764-0.22-4.87-0.919-5.011-1.57C78.864,227.195,78.459,225.323,78.053,223.452"/>
	<path id="path373" fill="#FFFFFF" stroke="#FFFFFF" stroke-width="0.0268" stroke-miterlimit="10" d="M165.167,223.429
		c-0.405,1.871-0.811,3.742-1.216,5.612c-0.143,0.653-4.249,1.351-5.014,1.571c0.765,0.22,4.871,0.919,5.014,1.57
		c0.405,1.871,0.811,3.742,1.216,5.613c0.406-1.871,0.812-3.742,1.218-5.613c0.141-0.651,4.247-1.35,5.012-1.57
		c-0.765-0.22-4.871-0.918-5.012-1.571C165.979,227.17,165.573,225.3,165.167,223.429"/>
	<path id="path375" fill="#FFFFFF" stroke="#FFFFFF" stroke-width="0.0268" stroke-miterlimit="10" d="M147.727,223.429
		c-0.405,1.871-0.812,3.742-1.217,5.612c-0.142,0.653-4.247,1.351-5.012,1.571c0.765,0.22,4.87,0.919,5.012,1.57
		c0.405,1.871,0.812,3.742,1.217,5.613c0.406-1.871,0.812-3.742,1.218-5.613c0.142-0.651,4.247-1.35,5.011-1.57
		c-0.764-0.22-4.869-0.918-5.011-1.571C148.538,227.17,148.133,225.3,147.727,223.429"/>
	<path id="path377" fill="#FFFFFF" stroke="#FFFFFF" stroke-width="0.0268" stroke-miterlimit="10" d="M112.883,243.548
		c-0.404,1.87-0.81,3.743-1.215,5.614c-0.142,0.651-4.248,1.35-5.012,1.57c0.764,0.221,4.87,0.919,5.012,1.57
		c0.405,1.872,0.811,3.742,1.215,5.614c0.406-1.872,0.812-3.742,1.219-5.614c0.141-0.651,4.248-1.349,5.011-1.57
		c-0.763-0.219-4.87-0.918-5.011-1.57C113.695,247.291,113.289,245.418,112.883,243.548"/>
	<path id="path379" fill="#FFFFFF" stroke="#FFFFFF" stroke-width="0.0268" stroke-miterlimit="10" d="M95.443,243.548
		c-0.405,1.87-0.811,3.743-1.216,5.614c-0.142,0.651-4.249,1.35-5.013,1.57c0.764,0.221,4.871,0.919,5.013,1.57
		c0.405,1.872,0.811,3.742,1.216,5.614c0.406-1.872,0.812-3.742,1.217-5.614c0.142-0.651,4.249-1.349,5.012-1.57
		c-0.764-0.219-4.871-0.918-5.012-1.57C96.255,247.291,95.85,245.418,95.443,243.548"/>
	<path id="path381" fill="#FFFFFF" stroke="#FFFFFF" stroke-width="0.0268" stroke-miterlimit="10" d="M130.312,243.515
		c-0.406,1.871-0.812,3.742-1.218,5.614c-0.141,0.651-4.249,1.349-5.013,1.57c0.764,0.22,4.872,0.917,5.013,1.57
		c0.405,1.871,0.812,3.742,1.218,5.613c0.405-1.871,0.811-3.742,1.215-5.613c0.143-0.653,4.248-1.35,5.013-1.57
		c-0.765-0.22-4.87-0.918-5.013-1.57C131.123,247.257,130.718,245.386,130.312,243.515"/>
	<path id="path383" fill="#FFFFFF" stroke="#FFFFFF" stroke-width="0.0268" stroke-miterlimit="10" d="M78.053,243.568
		c-0.405,1.87-0.811,3.743-1.216,5.612c-0.141,0.652-4.248,1.351-5.012,1.571c0.764,0.221,4.871,0.919,5.012,1.57
		c0.405,1.872,0.811,3.742,1.216,5.614c0.406-1.872,0.812-3.742,1.218-5.614c0.141-0.651,4.248-1.349,5.011-1.57
		c-0.764-0.22-4.87-0.919-5.011-1.571C78.864,247.31,78.459,245.438,78.053,243.568"/>
	<path id="path385" fill="#FFFFFF" stroke="#FFFFFF" stroke-width="0.0268" stroke-miterlimit="10" d="M165.167,243.544
		c-0.405,1.869-0.811,3.742-1.216,5.612c-0.143,0.652-4.249,1.351-5.014,1.571c0.765,0.22,4.871,0.917,5.014,1.57
		c0.405,1.872,0.811,3.742,1.216,5.614c0.406-1.872,0.812-3.742,1.218-5.614c0.141-0.652,4.247-1.349,5.012-1.57
		c-0.765-0.22-4.871-0.919-5.012-1.571C165.979,247.286,165.573,245.414,165.167,243.544"/>
	<path id="path387" fill="#FFFFFF" stroke="#FFFFFF" stroke-width="0.0268" stroke-miterlimit="10" d="M147.727,243.544
		c-0.405,1.869-0.812,3.742-1.217,5.612c-0.142,0.652-4.247,1.351-5.012,1.571c0.765,0.22,4.87,0.917,5.012,1.57
		c0.405,1.872,0.812,3.742,1.217,5.614c0.406-1.872,0.812-3.742,1.218-5.614c0.142-0.652,4.247-1.349,5.011-1.57
		c-0.764-0.22-4.869-0.919-5.011-1.571C148.538,247.286,148.133,245.414,147.727,243.544"/>
	<path id="path389" fill="#FFFFFF" stroke="#FFFFFF" stroke-width="0.0268" stroke-miterlimit="10" d="M112.883,184.639
		c-0.404,1.873-0.81,3.743-1.215,5.614c-0.142,0.652-4.248,1.349-5.012,1.571c0.764,0.22,4.87,0.917,5.012,1.57
		c0.405,1.87,0.811,3.742,1.215,5.612c0.406-1.87,0.812-3.742,1.219-5.612c0.141-0.653,4.248-1.352,5.011-1.57
		c-0.763-0.222-4.87-0.919-5.011-1.571C113.695,188.381,113.289,186.512,112.883,184.639"/>
	<path id="path391" fill="#FFFFFF" stroke="#FFFFFF" stroke-width="0.0268" stroke-miterlimit="10" d="M95.443,184.639
		c-0.405,1.873-0.811,3.743-1.216,5.614c-0.142,0.652-4.249,1.349-5.013,1.571c0.764,0.218,4.871,0.917,5.013,1.57
		c0.405,1.87,0.811,3.742,1.216,5.612c0.406-1.87,0.812-3.742,1.217-5.612c0.142-0.653,4.249-1.352,5.012-1.57
		c-0.764-0.222-4.871-0.919-5.012-1.571C96.255,188.381,95.85,186.512,95.443,184.639"/>
	<path id="path393" fill="#FFFFFF" stroke="#FFFFFF" stroke-width="0.0268" stroke-miterlimit="10" d="M130.312,184.606
		c-0.406,1.87-0.812,3.742-1.218,5.613c-0.141,0.651-4.249,1.35-5.013,1.57c0.764,0.22,4.872,0.919,5.013,1.57
		c0.405,1.871,0.812,3.743,1.218,5.613c0.405-1.87,0.811-3.742,1.215-5.613c0.143-0.651,4.248-1.35,5.013-1.57
		c-0.765-0.22-4.87-0.919-5.013-1.57C131.123,188.348,130.718,186.477,130.312,184.606"/>
	<path id="path395" fill="#FFFFFF" stroke="#FFFFFF" stroke-width="0.0268" stroke-miterlimit="10" d="M78.053,184.658
		c-0.405,1.871-0.811,3.743-1.216,5.614c-0.141,0.652-4.248,1.349-5.012,1.57c0.764,0.22,4.871,0.919,5.012,1.572
		c0.405,1.87,0.811,3.742,1.216,5.612c0.406-1.87,0.812-3.742,1.218-5.612c0.141-0.653,4.248-1.352,5.011-1.572
		c-0.764-0.22-4.87-0.917-5.011-1.57C78.864,188.401,78.459,186.529,78.053,184.658"/>
	<path id="path397" fill="#FFFFFF" stroke="#FFFFFF" stroke-width="0.0268" stroke-miterlimit="10" d="M165.167,184.635
		c-0.405,1.871-0.811,3.742-1.216,5.614c-0.143,0.651-4.249,1.349-5.014,1.57c0.765,0.22,4.871,0.918,5.014,1.57
		c0.405,1.869,0.811,3.743,1.216,5.613c0.406-1.87,0.812-3.744,1.218-5.613c0.141-0.652,4.247-1.35,5.012-1.57
		c-0.765-0.221-4.871-0.919-5.012-1.57C165.979,188.376,165.573,186.506,165.167,184.635"/>
	<path id="path399" fill="#FFFFFF" stroke="#FFFFFF" stroke-width="0.0268" stroke-miterlimit="10" d="M147.727,184.635
		c-0.405,1.871-0.812,3.742-1.217,5.614c-0.142,0.651-4.247,1.349-5.012,1.57c0.765,0.22,4.87,0.918,5.012,1.57
		c0.405,1.869,0.812,3.743,1.217,5.613c0.406-1.87,0.812-3.744,1.218-5.613c0.142-0.652,4.247-1.35,5.011-1.57
		c-0.764-0.221-4.869-0.919-5.011-1.57C148.538,188.376,148.133,186.506,147.727,184.635"/>
	<path id="path401" fill="#FFFFFF" stroke="#FFFFFF" stroke-width="0.0268" stroke-miterlimit="10" d="M95.443,104.179
		c-0.405,1.871-0.811,3.742-1.216,5.613c-0.142,0.652-4.249,1.35-5.013,1.57c0.764,0.22,4.871,0.919,5.013,1.571
		c0.405,1.871,0.811,3.742,1.216,5.613c0.406-1.871,0.812-3.742,1.217-5.613c0.142-0.652,4.249-1.351,5.012-1.571
		c-0.764-0.22-4.871-0.919-5.012-1.57C96.255,107.921,95.85,106.05,95.443,104.179"/>
	<path id="path403" fill="#FFFFFF" stroke="#FFFFFF" stroke-width="0.0268" stroke-miterlimit="10" d="M78.003,104.179
		c-0.405,1.871-0.811,3.742-1.216,5.613c-0.141,0.652-4.249,1.35-5.013,1.57c0.764,0.22,4.872,0.919,5.013,1.571
		c0.405,1.871,0.811,3.742,1.216,5.613c0.406-1.871,0.812-3.742,1.217-5.613c0.142-0.652,4.249-1.351,5.012-1.571
		c-0.764-0.22-4.871-0.919-5.012-1.57C78.814,107.921,78.409,106.05,78.003,104.179"/>
	<path id="path405" fill="#FFFFFF" stroke="#FFFFFF" stroke-width="0.0268" stroke-miterlimit="10" d="M130.319,104.179
		c-0.405,1.871-0.81,3.742-1.216,5.613c-0.141,0.652-4.248,1.35-5.013,1.57c0.765,0.22,4.872,0.919,5.013,1.571
		c0.406,1.871,0.811,3.742,1.216,5.613c0.405-1.871,0.812-3.742,1.218-5.613c0.141-0.652,4.248-1.351,5.012-1.571
		c-0.764-0.22-4.871-0.919-5.012-1.57C131.131,107.921,130.725,106.05,130.319,104.179"/>
	<path id="path407" fill="#FFFFFF" stroke="#FFFFFF" stroke-width="0.0268" stroke-miterlimit="10" d="M112.876,104.179
		c-0.406,1.871-0.812,3.742-1.218,5.613c-0.141,0.652-4.247,1.35-5.012,1.57c0.765,0.22,4.871,0.919,5.012,1.571
		c0.405,1.871,0.812,3.742,1.218,5.613c0.405-1.871,0.811-3.742,1.217-5.613c0.142-0.652,4.247-1.351,5.011-1.571
		c-0.764-0.22-4.869-0.919-5.011-1.57C113.687,107.921,113.281,106.05,112.876,104.179"/>
	<path id="path409" fill="#FFFFFF" stroke="#FFFFFF" stroke-width="0.0268" stroke-miterlimit="10" d="M78.012,84.05
		c-0.406,1.871-0.812,3.742-1.217,5.613c-0.142,0.652-4.248,1.35-5.012,1.57c0.764,0.221,4.871,0.919,5.012,1.571
		c0.406,1.871,0.812,3.742,1.217,5.614c0.405-1.872,0.811-3.743,1.217-5.614c0.141-0.652,4.248-1.35,5.011-1.571
		c-0.763-0.22-4.87-0.918-5.011-1.57C78.823,87.792,78.417,85.92,78.012,84.05"/>
	<path id="path411" fill="#FFFFFF" stroke="#FFFFFF" stroke-width="0.0268" stroke-miterlimit="10" d="M95.443,84.064
		c-0.405,1.871-0.811,3.743-1.216,5.614c-0.142,0.652-4.249,1.35-5.013,1.57c0.764,0.22,4.871,0.919,5.013,1.571
		c0.405,1.871,0.811,3.742,1.216,5.613c0.406-1.871,0.812-3.742,1.217-5.613c0.142-0.652,4.249-1.351,5.012-1.571
		c-0.764-0.221-4.871-0.918-5.012-1.57C96.255,87.806,95.85,85.935,95.443,84.064"/>
	<path id="path413" fill="#FFFFFF" stroke="#FFFFFF" stroke-width="0.0268" stroke-miterlimit="10" d="M112.883,84.064
		c-0.404,1.871-0.81,3.743-1.215,5.614c-0.142,0.652-4.248,1.35-5.012,1.57c0.764,0.22,4.87,0.919,5.012,1.571
		c0.405,1.871,0.811,3.742,1.215,5.613c0.406-1.871,0.812-3.742,1.219-5.613c0.141-0.652,4.248-1.351,5.011-1.571
		c-0.763-0.221-4.87-0.918-5.011-1.57C113.695,87.806,113.289,85.935,112.883,84.064"/>
	<path id="path415" fill="#FFFFFF" stroke="#FFFFFF" stroke-width="0.0268" stroke-miterlimit="10" d="M130.324,84.064
		c-0.406,1.871-0.812,3.743-1.217,5.614c-0.141,0.652-4.248,1.35-5.013,1.57c0.765,0.22,4.872,0.919,5.013,1.571
		c0.404,1.871,0.811,3.742,1.217,5.613c0.406-1.871,0.811-3.742,1.217-5.613c0.141-0.652,4.248-1.351,5.013-1.571
		c-0.765-0.221-4.872-0.918-5.013-1.57C131.135,87.806,130.73,85.935,130.324,84.064"/>
	<path id="path417" fill="#FFFFFF" stroke="#FFFFFF" stroke-width="0.0268" stroke-miterlimit="10" d="M165.188,104.155
		c-0.404,1.871-0.811,3.742-1.217,5.614c-0.141,0.652-4.248,1.35-5.012,1.57c0.764,0.221,4.871,0.919,5.012,1.571
		c0.406,1.871,0.812,3.742,1.217,5.614c0.405-1.872,0.811-3.743,1.217-5.614c0.142-0.652,4.248-1.35,5.012-1.571
		c-0.764-0.22-4.87-0.918-5.012-1.57C165.998,107.897,165.593,106.026,165.188,104.155"/>
	<path id="path419" fill="#FFFFFF" stroke="#FFFFFF" stroke-width="0.0268" stroke-miterlimit="10" d="M165.205,84.064
		c-0.406,1.871-0.811,3.743-1.217,5.614c-0.142,0.652-4.248,1.35-5.012,1.57c0.764,0.22,4.87,0.919,5.012,1.571
		c0.406,1.871,0.811,3.742,1.217,5.613c0.404-1.871,0.811-3.742,1.217-5.613c0.141-0.652,4.248-1.351,5.012-1.571
		c-0.764-0.221-4.871-0.918-5.012-1.57C166.016,87.806,165.609,85.935,165.205,84.064"/>
	<path id="path421" fill="#FFFFFF" stroke="#FFFFFF" stroke-width="0.0268" stroke-miterlimit="10" d="M147.748,104.155
		c-0.406,1.871-0.812,3.742-1.217,5.614c-0.141,0.652-4.248,1.35-5.013,1.57c0.765,0.221,4.872,0.919,5.013,1.571
		c0.404,1.871,0.811,3.742,1.217,5.614c0.406-1.872,0.811-3.743,1.216-5.614c0.142-0.652,4.249-1.35,5.013-1.571
		c-0.764-0.22-4.871-0.918-5.013-1.57C148.559,107.897,148.154,106.026,147.748,104.155"/>
	<path id="path423" fill="#FFFFFF" stroke="#FFFFFF" stroke-width="0.0268" stroke-miterlimit="10" d="M147.764,84.064
		c-0.404,1.871-0.811,3.743-1.217,5.614c-0.141,0.652-4.248,1.35-5.012,1.57c0.764,0.22,4.871,0.919,5.012,1.571
		c0.406,1.871,0.812,3.742,1.217,5.613c0.406-1.871,0.811-3.742,1.217-5.613c0.141-0.652,4.248-1.351,5.012-1.571
		c-0.764-0.221-4.871-0.918-5.012-1.57C148.574,87.806,148.17,85.935,147.764,84.064"/>
	<path id="path425" fill="#FFFFFF" stroke="#FFFFFF" stroke-width="0.0268" stroke-miterlimit="10" d="M95.443,63.949
		c-0.405,1.871-0.811,3.742-1.216,5.614c-0.142,0.651-4.249,1.35-5.013,1.57c0.764,0.22,4.871,0.918,5.013,1.57
		c0.405,1.871,0.811,3.743,1.216,5.614c0.406-1.871,0.812-3.743,1.217-5.614c0.142-0.652,4.249-1.35,5.012-1.57
		c-0.764-0.221-4.871-0.919-5.012-1.57C96.255,67.69,95.85,65.819,95.443,63.949"/>
	<path id="path427" fill="#FFFFFF" stroke="#FFFFFF" stroke-width="0.0268" stroke-miterlimit="10" d="M78.003,63.949
		c-0.405,1.871-0.811,3.742-1.216,5.614c-0.141,0.651-4.249,1.35-5.013,1.57c0.764,0.22,4.872,0.918,5.013,1.57
		c0.405,1.871,0.811,3.743,1.216,5.614c0.406-1.871,0.812-3.743,1.217-5.614c0.142-0.652,4.249-1.35,5.012-1.57
		c-0.764-0.221-4.871-0.919-5.012-1.57C78.814,67.69,78.409,65.819,78.003,63.949"/>
	<path id="path429" fill="#FFFFFF" stroke="#FFFFFF" stroke-width="0.0268" stroke-miterlimit="10" d="M130.319,63.949
		c-0.405,1.871-0.81,3.742-1.216,5.614c-0.141,0.651-4.248,1.35-5.013,1.57c0.765,0.22,4.872,0.918,5.013,1.57
		c0.406,1.871,0.811,3.743,1.216,5.614c0.405-1.871,0.812-3.743,1.218-5.614c0.141-0.652,4.248-1.35,5.012-1.57
		c-0.764-0.221-4.871-0.919-5.012-1.57C131.131,67.69,130.725,65.819,130.319,63.949"/>
	<path id="path431" fill="#FFFFFF" stroke="#FFFFFF" stroke-width="0.0268" stroke-miterlimit="10" d="M112.876,63.949
		c-0.406,1.871-0.812,3.742-1.218,5.614c-0.141,0.651-4.247,1.35-5.012,1.57c0.765,0.22,4.871,0.918,5.012,1.57
		c0.405,1.871,0.812,3.743,1.218,5.614c0.405-1.871,0.811-3.743,1.217-5.614c0.142-0.652,4.247-1.35,5.011-1.57
		c-0.764-0.221-4.869-0.919-5.011-1.57C113.687,67.69,113.281,65.819,112.876,63.949"/>
	<path id="path433" fill="#FFFFFF" stroke="#FFFFFF" stroke-width="0.0268" stroke-miterlimit="10" d="M78.012,43.819
		c-0.406,1.871-0.812,3.742-1.217,5.613c-0.141,0.652-4.248,1.35-5.012,1.57c0.764,0.221,4.87,0.919,5.012,1.571
		c0.406,1.871,0.812,3.742,1.217,5.613c0.405-1.871,0.811-3.742,1.217-5.613c0.141-0.652,4.248-1.35,5.011-1.571
		c-0.763-0.22-4.87-0.918-5.011-1.57C78.823,47.561,78.417,45.69,78.012,43.819"/>
	<path id="path435" fill="#FFFFFF" stroke="#FFFFFF" stroke-width="0.0268" stroke-miterlimit="10" d="M95.443,43.834
		c-0.405,1.871-0.811,3.742-1.216,5.613c-0.142,0.652-4.249,1.35-5.013,1.57c0.764,0.22,4.871,0.919,5.013,1.571
		c0.405,1.871,0.811,3.742,1.216,5.613c0.406-1.871,0.812-3.742,1.217-5.613c0.142-0.652,4.249-1.351,5.012-1.571
		c-0.764-0.22-4.871-0.918-5.012-1.57C96.255,47.575,95.85,45.704,95.443,43.834"/>
	<path id="path437" fill="#FFFFFF" stroke="#FFFFFF" stroke-width="0.0268" stroke-miterlimit="10" d="M112.883,43.834
		c-0.404,1.871-0.81,3.742-1.215,5.613c-0.142,0.652-4.248,1.35-5.012,1.57c0.764,0.22,4.87,0.919,5.012,1.571
		c0.405,1.871,0.811,3.742,1.215,5.613c0.406-1.871,0.812-3.742,1.219-5.613c0.141-0.652,4.248-1.351,5.011-1.571
		c-0.763-0.22-4.87-0.918-5.011-1.57C113.695,47.575,113.289,45.704,112.883,43.834"/>
	<path id="path439" fill="#FFFFFF" stroke="#FFFFFF" stroke-width="0.0268" stroke-miterlimit="10" d="M130.324,43.834
		c-0.406,1.871-0.812,3.742-1.217,5.613c-0.141,0.652-4.248,1.35-5.013,1.57c0.765,0.22,4.872,0.919,5.013,1.571
		c0.404,1.871,0.811,3.742,1.217,5.613c0.406-1.871,0.811-3.742,1.217-5.613c0.141-0.652,4.248-1.351,5.013-1.571
		c-0.765-0.22-4.872-0.918-5.013-1.57C131.135,47.575,130.73,45.704,130.324,43.834"/>
	<path id="path441" fill="#FFFFFF" stroke="#FFFFFF" stroke-width="0.0268" stroke-miterlimit="10" d="M165.188,63.925
		c-0.404,1.871-0.811,3.742-1.217,5.613c-0.141,0.652-4.248,1.35-5.012,1.57c0.764,0.22,4.871,0.919,5.012,1.571
		c0.406,1.871,0.812,3.742,1.217,5.613c0.405-1.871,0.811-3.742,1.217-5.613c0.142-0.652,4.248-1.351,5.012-1.571
		c-0.764-0.22-4.87-0.918-5.012-1.57C165.998,67.667,165.593,65.796,165.188,63.925"/>
	<path id="path443" fill="#FFFFFF" stroke="#FFFFFF" stroke-width="0.0268" stroke-miterlimit="10" d="M165.205,43.834
		c-0.406,1.871-0.811,3.742-1.217,5.613c-0.142,0.652-4.248,1.35-5.012,1.57c0.764,0.22,4.87,0.919,5.012,1.571
		c0.406,1.871,0.811,3.742,1.217,5.613c0.404-1.871,0.811-3.742,1.217-5.613c0.141-0.652,4.248-1.351,5.012-1.571
		c-0.764-0.22-4.871-0.918-5.012-1.57C166.016,47.575,165.609,45.704,165.205,43.834"/>
	<path id="path445" fill="#FFFFFF" stroke="#FFFFFF" stroke-width="0.0268" stroke-miterlimit="10" d="M147.748,63.925
		c-0.406,1.871-0.812,3.742-1.217,5.613c-0.141,0.652-4.248,1.35-5.013,1.57c0.765,0.22,4.872,0.919,5.013,1.571
		c0.404,1.871,0.811,3.742,1.217,5.613c0.406-1.871,0.811-3.742,1.216-5.613c0.142-0.652,4.249-1.351,5.013-1.571
		c-0.764-0.22-4.871-0.918-5.013-1.57C148.559,67.667,148.154,65.796,147.748,63.925"/>
	<path id="path447" fill="#FFFFFF" stroke="#FFFFFF" stroke-width="0.0268" stroke-miterlimit="10" d="M147.764,43.834
		c-0.404,1.871-0.811,3.742-1.217,5.613c-0.141,0.652-4.248,1.35-5.012,1.57c0.764,0.22,4.871,0.919,5.012,1.571
		c0.406,1.871,0.812,3.742,1.217,5.613c0.406-1.871,0.811-3.742,1.217-5.613c0.141-0.652,4.248-1.351,5.012-1.571
		c-0.764-0.22-4.871-0.918-5.012-1.57C148.574,47.575,148.17,45.704,147.764,43.834"/>
	<path id="path449" fill="#FFFFFF" stroke="#FFFFFF" stroke-width="0.0268" stroke-miterlimit="10" d="M43.11,164.542
		c-0.405,1.873-0.811,3.743-1.216,5.614c-0.141,0.652-4.248,1.349-5.012,1.571c0.764,0.22,4.871,0.917,5.012,1.57
		c0.406,1.87,0.811,3.742,1.216,5.613c0.406-1.871,0.812-3.743,1.217-5.613c0.142-0.653,4.248-1.35,5.012-1.57
		c-0.764-0.222-4.87-0.919-5.012-1.571C43.921,168.285,43.516,166.416,43.11,164.542"/>
	<path id="path451" fill="#FFFFFF" stroke="#FFFFFF" stroke-width="0.0268" stroke-miterlimit="10" d="M43.144,144.438
		c-0.405,1.871-0.811,3.742-1.216,5.613c-0.141,0.652-4.248,1.349-5.012,1.571c0.764,0.22,4.871,0.919,5.012,1.57
		c0.405,1.871,0.811,3.742,1.216,5.613c0.406-1.871,0.812-3.742,1.217-5.613c0.141-0.651,4.248-1.35,5.012-1.57
		c-0.764-0.221-4.871-0.919-5.012-1.571C43.955,148.18,43.549,146.309,43.144,144.438"/>
	<path id="path453" fill="#FFFFFF" stroke="#FFFFFF" stroke-width="0.0268" stroke-miterlimit="10" d="M43.164,124.289
		c-0.405,1.871-0.811,3.743-1.216,5.614c-0.142,0.651-4.248,1.35-5.012,1.57c0.764,0.22,4.87,0.919,5.012,1.571
		c0.405,1.871,0.811,3.742,1.216,5.613c0.406-1.871,0.812-3.742,1.218-5.613c0.141-0.652,4.248-1.351,5.011-1.571
		c-0.764-0.221-4.87-0.919-5.011-1.57C43.976,128.032,43.57,126.16,43.164,124.289"/>
	<path id="path455" fill="#FFFFFF" stroke="#FFFFFF" stroke-width="0.0268" stroke-miterlimit="10" d="M43.123,203.317
		c-0.406,1.871-0.811,3.743-1.217,5.615c-0.141,0.651-4.248,1.349-5.012,1.57c0.764,0.22,4.872,0.919,5.012,1.572
		c0.406,1.869,0.811,3.741,1.217,5.611c0.405-1.87,0.811-3.742,1.217-5.611c0.141-0.653,4.248-1.352,5.011-1.572
		c-0.764-0.22-4.87-0.918-5.011-1.57C43.934,207.06,43.528,205.188,43.123,203.317"/>
	<path id="path457" fill="#FFFFFF" stroke="#FFFFFF" stroke-width="0.0268" stroke-miterlimit="10" d="M43.123,223.433
		c-0.406,1.871-0.811,3.743-1.217,5.614c-0.141,0.651-4.248,1.35-5.012,1.57c0.764,0.22,4.872,0.918,5.012,1.57
		c0.406,1.871,0.811,3.743,1.217,5.613c0.405-1.87,0.811-3.742,1.217-5.613c0.141-0.652,4.248-1.35,5.011-1.57
		c-0.764-0.22-4.87-0.919-5.011-1.57C43.934,227.175,43.528,225.304,43.123,223.433"/>
	<path id="path459" fill="#FFFFFF" stroke="#FFFFFF" stroke-width="0.0268" stroke-miterlimit="10" d="M43.123,243.548
		c-0.406,1.87-0.811,3.743-1.217,5.614c-0.141,0.651-4.248,1.35-5.012,1.57c0.764,0.221,4.872,0.919,5.012,1.57
		c0.406,1.872,0.811,3.742,1.217,5.614c0.405-1.872,0.811-3.742,1.217-5.614c0.141-0.651,4.248-1.349,5.011-1.57
		c-0.764-0.219-4.87-0.918-5.011-1.57C43.934,247.291,43.528,245.418,43.123,243.548"/>
	<path id="path461" fill="#FFFFFF" stroke="#FFFFFF" stroke-width="0.0268" stroke-miterlimit="10" d="M43.123,184.639
		c-0.406,1.873-0.811,3.743-1.217,5.614c-0.141,0.652-4.248,1.349-5.012,1.571c0.764,0.218,4.872,0.917,5.012,1.57
		c0.406,1.87,0.811,3.742,1.217,5.612c0.405-1.87,0.811-3.742,1.217-5.612c0.141-0.653,4.248-1.35,5.011-1.57
		c-0.764-0.222-4.87-0.919-5.011-1.571C43.934,188.381,43.528,186.512,43.123,184.639"/>
	<path id="path463" fill="#FFFFFF" stroke="#FFFFFF" stroke-width="0.0268" stroke-miterlimit="10" d="M43.136,104.174
		c-0.406,1.871-0.812,3.742-1.217,5.613c-0.141,0.652-4.248,1.35-5.012,1.57c0.764,0.22,4.87,0.919,5.012,1.571
		c0.406,1.871,0.812,3.742,1.217,5.613c0.405-1.871,0.811-3.742,1.217-5.613c0.141-0.652,4.248-1.351,5.012-1.571
		c-0.764-0.22-4.871-0.919-5.012-1.57C43.946,107.916,43.541,106.045,43.136,104.174"/>
	<path id="path465" fill="#FFFFFF" stroke="#FFFFFF" stroke-width="0.0268" stroke-miterlimit="10" d="M43.123,84.064
		c-0.406,1.871-0.811,3.743-1.217,5.614c-0.141,0.652-4.248,1.35-5.012,1.57c0.764,0.22,4.872,0.919,5.012,1.571
		c0.406,1.871,0.811,3.742,1.217,5.613c0.405-1.871,0.811-3.742,1.217-5.613c0.141-0.652,4.248-1.351,5.011-1.571
		c-0.764-0.221-4.87-0.918-5.011-1.57C43.934,87.806,43.528,85.935,43.123,84.064"/>
	<path id="path467" fill="#FFFFFF" stroke="#FFFFFF" stroke-width="0.0268" stroke-miterlimit="10" d="M43.136,63.944
		c-0.406,1.871-0.812,3.743-1.217,5.614c-0.141,0.651-4.248,1.35-5.012,1.57c0.764,0.22,4.871,0.919,5.012,1.571
		c0.406,1.871,0.812,3.742,1.217,5.613c0.405-1.871,0.811-3.742,1.217-5.613c0.141-0.652,4.248-1.351,5.012-1.571
		c-0.764-0.221-4.871-0.919-5.012-1.57C43.946,67.686,43.541,65.815,43.136,63.944"/>
	<path id="path469" fill="#FFFFFF" stroke="#FFFFFF" stroke-width="0.0268" stroke-miterlimit="10" d="M43.123,43.834
		c-0.406,1.871-0.811,3.742-1.217,5.613c-0.141,0.652-4.248,1.35-5.012,1.57c0.764,0.22,4.872,0.919,5.012,1.571
		c0.406,1.871,0.811,3.742,1.217,5.613c0.405-1.871,0.811-3.742,1.217-5.613c0.141-0.652,4.248-1.351,5.011-1.571
		c-0.764-0.22-4.87-0.918-5.011-1.57C43.934,47.575,43.528,45.704,43.123,43.834"/>
	<path id="path471" fill="#FFFFFF" stroke="#FFFFFF" stroke-width="0.0268" stroke-miterlimit="10" d="M60.55,164.542
		c-0.405,1.873-0.811,3.743-1.216,5.614c-0.142,0.652-4.248,1.349-5.012,1.571c0.764,0.22,4.871,0.917,5.012,1.57
		c0.406,1.87,0.811,3.742,1.216,5.613c0.406-1.871,0.811-3.743,1.217-5.613c0.141-0.653,4.248-1.35,5.012-1.57
		c-0.764-0.222-4.871-0.919-5.012-1.571C61.361,168.285,60.956,166.416,60.55,164.542"/>
	<path id="path473" fill="#FFFFFF" stroke="#FFFFFF" stroke-width="0.0268" stroke-miterlimit="10" d="M60.584,144.438
		c-0.406,1.871-0.811,3.742-1.216,5.613c-0.142,0.652-4.248,1.349-5.012,1.571c0.764,0.22,4.871,0.919,5.012,1.57
		c0.405,1.871,0.811,3.742,1.216,5.613c0.406-1.871,0.812-3.742,1.217-5.613c0.142-0.651,4.249-1.35,5.012-1.57
		c-0.763-0.221-4.87-0.919-5.012-1.571C61.396,148.18,60.99,146.309,60.584,144.438"/>
	<path id="path475" fill="#FFFFFF" stroke="#FFFFFF" stroke-width="0.0268" stroke-miterlimit="10" d="M60.604,124.289
		c-0.405,1.871-0.811,3.743-1.216,5.614c-0.142,0.651-4.249,1.35-5.013,1.57c0.764,0.22,4.871,0.919,5.013,1.571
		c0.405,1.871,0.811,3.742,1.216,5.613c0.405-1.871,0.812-3.742,1.217-5.613c0.142-0.652,4.248-1.351,5.012-1.571
		c-0.764-0.221-4.871-0.919-5.012-1.57C61.416,128.032,61.01,126.16,60.604,124.289"/>
	<path id="path477" fill="#FFFFFF" stroke="#FFFFFF" stroke-width="0.0268" stroke-miterlimit="10" d="M60.563,203.317
		c-0.405,1.871-0.812,3.743-1.217,5.615c-0.141,0.651-4.248,1.349-5.012,1.57c0.764,0.22,4.87,0.919,5.012,1.572
		c0.405,1.869,0.812,3.741,1.217,5.611c0.406-1.87,0.811-3.742,1.216-5.611c0.142-0.653,4.249-1.352,5.013-1.572
		c-0.764-0.22-4.871-0.918-5.013-1.57C61.374,207.06,60.969,205.188,60.563,203.317"/>
	<path id="path479" fill="#FFFFFF" stroke="#FFFFFF" stroke-width="0.0268" stroke-miterlimit="10" d="M60.563,223.433
		c-0.405,1.871-0.812,3.743-1.217,5.614c-0.141,0.651-4.248,1.35-5.012,1.57c0.764,0.22,4.871,0.918,5.012,1.57
		c0.405,1.871,0.812,3.743,1.217,5.613c0.406-1.87,0.811-3.742,1.216-5.613c0.142-0.652,4.249-1.35,5.013-1.57
		c-0.764-0.22-4.871-0.919-5.013-1.57C61.374,227.175,60.969,225.304,60.563,223.433"/>
	<path id="path481" fill="#FFFFFF" stroke="#FFFFFF" stroke-width="0.0268" stroke-miterlimit="10" d="M60.563,243.548
		c-0.405,1.87-0.812,3.743-1.217,5.614c-0.141,0.651-4.248,1.35-5.012,1.57c0.764,0.221,4.871,0.919,5.012,1.57
		c0.405,1.872,0.812,3.742,1.217,5.614c0.406-1.872,0.811-3.742,1.216-5.614c0.142-0.651,4.249-1.349,5.013-1.57
		c-0.764-0.219-4.871-0.918-5.013-1.57C61.374,247.291,60.969,245.418,60.563,243.548"/>
	<path id="path483" fill="#FFFFFF" stroke="#FFFFFF" stroke-width="0.0268" stroke-miterlimit="10" d="M60.563,184.639
		c-0.405,1.873-0.812,3.743-1.217,5.614c-0.141,0.652-4.248,1.349-5.012,1.571c0.764,0.22,4.871,0.917,5.012,1.57
		c0.405,1.87,0.812,3.742,1.217,5.612c0.406-1.87,0.811-3.742,1.216-5.612c0.142-0.653,4.249-1.352,5.013-1.57
		c-0.764-0.222-4.871-0.919-5.013-1.571C61.374,188.381,60.969,186.512,60.563,184.639"/>
	<path id="path485" fill="#FFFFFF" stroke="#FFFFFF" stroke-width="0.0268" stroke-miterlimit="10" d="M60.575,104.174
		c-0.405,1.871-0.811,3.742-1.216,5.613c-0.141,0.652-4.248,1.35-5.012,1.57c0.764,0.22,4.871,0.919,5.012,1.571
		c0.406,1.871,0.811,3.742,1.216,5.613c0.406-1.871,0.812-3.742,1.217-5.613c0.142-0.652,4.248-1.351,5.012-1.571
		c-0.764-0.22-4.87-0.919-5.012-1.57C61.387,107.916,60.981,106.045,60.575,104.174"/>
	<path id="path487" fill="#FFFFFF" stroke="#FFFFFF" stroke-width="0.0268" stroke-miterlimit="10" d="M60.563,84.064
		c-0.405,1.871-0.812,3.743-1.217,5.614c-0.141,0.652-4.248,1.35-5.012,1.57c0.764,0.22,4.871,0.919,5.012,1.571
		c0.405,1.871,0.812,3.742,1.217,5.613c0.406-1.871,0.811-3.742,1.216-5.613c0.142-0.652,4.249-1.351,5.013-1.571
		c-0.764-0.221-4.871-0.918-5.013-1.57C61.374,87.806,60.969,85.935,60.563,84.064"/>
	<path id="path489" fill="#FFFFFF" stroke="#FFFFFF" stroke-width="0.0268" stroke-miterlimit="10" d="M60.575,63.944
		c-0.405,1.871-0.811,3.743-1.216,5.614c-0.141,0.651-4.248,1.35-5.012,1.57c0.764,0.22,4.871,0.919,5.012,1.571
		c0.406,1.871,0.811,3.742,1.216,5.613c0.406-1.871,0.812-3.742,1.217-5.613c0.142-0.652,4.248-1.351,5.012-1.571
		c-0.764-0.221-4.87-0.919-5.012-1.57C61.387,67.686,60.981,65.815,60.575,63.944"/>
	<path id="path491" fill="#FFFFFF" stroke="#FFFFFF" stroke-width="0.0268" stroke-miterlimit="10" d="M60.563,43.834
		c-0.405,1.871-0.812,3.742-1.217,5.613c-0.141,0.652-4.248,1.35-5.012,1.57c0.764,0.22,4.871,0.919,5.012,1.571
		c0.405,1.871,0.812,3.742,1.217,5.613c0.406-1.871,0.811-3.742,1.216-5.613c0.142-0.652,4.249-1.351,5.013-1.571
		c-0.764-0.22-4.871-0.918-5.013-1.57C61.374,47.575,60.969,45.704,60.563,43.834"/>
</g>
</svg>
